<svg id="Capa_1" data-name="Capa 1" xmlns="http://www.w3.org/2000/svg" viewBox="0 0 249.93 249.89"><defs><style>.cls-1,.cls-4,.cls-7{fill:none;}.cls-1,.cls-6,.cls-8{stroke:#000;}.cls-1,.cls-3,.cls-4,.cls-6,.cls-7,.cls-8{stroke-miterlimit:10;}.cls-2,.cls-3{fill:#ff9700;}.cls-3,.cls-4{stroke:#ff9700;}.cls-5,.cls-6{fill:#fff;}.cls-7{stroke:#bf5400;}.cls-8{fill:#ff9100;}</style></defs><path class="cls-1" d="M94.5,150.5" transform="translate(-3.38 -2.98)"/><path class="cls-1" d="M137.29,80" transform="translate(-3.38 -2.98)"/><path class="cls-1" d="M89.5,161.5" transform="translate(-3.38 -2.98)"/><path class="cls-2" d="M105.43,101.35a5.24,5.24,0,0,0,4.65-1.24,1.51,1.51,0,0,0,.38-1.46,1.54,1.54,0,0,0-1-1.05,4.83,4.83,0,0,0-4,.41l1.52,2.59c.32-.22.64-.42,1-.61l.51-.27.23-.1c.06,0,.33-.15,0,0a11.32,11.32,0,0,1,2.13-.63l-1.16-2.74-3.89,2,1.52,2.59,4.23-2.2-1.82-2.36a7.73,7.73,0,0,1-.67.73l-.36.32a1.37,1.37,0,0,1-.18.16c.17-.09.11-.09,0,0a5.73,5.73,0,0,1-.79.48l-.2.1-.08,0-.08,0-.26.1.8,2.89a14.54,14.54,0,0,0,3.8-2.28,1.48,1.48,0,0,0,.12-2,1.52,1.52,0,0,0-1.93-.39,13.72,13.72,0,0,0-3.21,2.06,1.51,1.51,0,0,0-.31,1.64,1.53,1.53,0,0,0,1.37.92,4.5,4.5,0,0,0,4-2.37,1.51,1.51,0,0,0-2-2.06l-1.91,1.18a1.5,1.5,0,0,0-.61,1.88,1.48,1.48,0,0,0,1.77.86,11.32,11.32,0,0,0,3.71-2.32l-2.12-2.12a10.17,10.17,0,0,1-1,1c-.13.12.21-.14,0,0l-.29.19a5,5,0,0,1-.59.34l1.82,2.35c.22-.2.45-.41.68-.6,0,0,.37-.28.1-.08l.36-.26a10.6,10.6,0,0,1,1.44-.87l-1.82-2.36a7.72,7.72,0,0,1-.72.68l-.19.16c.13-.1.15-.12.07,0l-.34.24a15.61,15.61,0,0,1-1.53.89l-.73.37-.42.2c-.06,0-.53.22-.21.1-.09,0-.27.13-.37.11a.47.47,0,0,1,.31,0c.18.09.19.1,0,0,.31.26-.06-.09-.11-.15.24.26-.09-.12-.13-.18a1.56,1.56,0,0,0-1.3-.75,1.47,1.47,0,0,0-1.29.75s-.15.29-.16.28l.11-.14c-.12.12-.09.1.08,0l2.26,1.3,0-.26a1.54,1.54,0,0,0-1.5-1.5c-.74,0-1.6.66-1.5,1.5l0,.26a1.61,1.61,0,0,0,.74,1.3,1.5,1.5,0,0,0,1.52,0,3.22,3.22,0,0,0,1-1.19h-2.59a3.27,3.27,0,0,0,2.57,1.77,6.21,6.21,0,0,0,2.62-.9,13.14,13.14,0,0,0,3.84-2.66,1.5,1.5,0,0,0-1.81-2.35,14.15,14.15,0,0,0-3.19,2.28,1.5,1.5,0,0,0-.12,2,1.51,1.51,0,0,0,1.93.39,8,8,0,0,0,2.5-2,1.5,1.5,0,0,0-2.12-2.12,7.68,7.68,0,0,1-.69.59c.26-.2-.08,0-.1.07l-.37.25-.7.4-.33.16c-.16.07-.15.07,0,0l-.22.09,1.16,2.74,1.91-1.17-2.06-2.06a2.34,2.34,0,0,1-.25.39c.26-.29,0,0,0,0l-.28.26.1-.08-.17.12s-.25.16-.27.14c.2-.08.23-.1.08,0l-.19.06-.09,0c-.17,0-.13,0,.11,0a2.53,2.53,0,0,0-.39,0l1.06,2.56.21-.17,0,0,.21-.16c.22-.16.46-.31.69-.46a12.33,12.33,0,0,1,1.44-.76l-1.82-2.35-.2.16c.13-.1.13-.1,0,0l-.31.23c-.23.15-.46.31-.7.45s-.47.27-.72.4l-.33.16-.23.1c.17-.07.18-.07,0,0a1.66,1.66,0,0,0-.9.68,1.51,1.51,0,0,0,1.7,2.21,8.85,8.85,0,0,0,4-2.74A1.5,1.5,0,0,0,110,96l-4.24,2.2a1.52,1.52,0,0,0-.53,2.06,1.54,1.54,0,0,0,2,.53l3.89-2a1.5,1.5,0,0,0,.61-1.87,1.52,1.52,0,0,0-1.77-.87A12.36,12.36,0,0,0,105.4,98a1.5,1.5,0,1,0,1.52,2.59,1.23,1.23,0,0,1,.32-.17l-.13.06.17-.06.28-.07c.35-.1-.29,0,.07,0a2.25,2.25,0,0,1,.58,0c-.37-.11,0,0,.07,0l.34.11L108,98c-.13.1-.12.1,0,0a.71.71,0,0,1-.14.1l-.31.19-.15.08c-.16.07-.14.06,0,0a1.28,1.28,0,0,1-.33.11,1.65,1.65,0,0,0-.32.07c.21,0,.23,0,.06,0h-.44c-.17,0-.15,0,.06,0l-.22-.05a1.5,1.5,0,1,0-.79,2.89Z" transform="translate(-3.38 -2.98)"/><path class="cls-2" d="M124.59,106.63a1.93,1.93,0,0,0,.86,2.26,1.53,1.53,0,0,0,2-.54,19.74,19.74,0,0,0,2.75-6.12,1.51,1.51,0,0,0-2.75-1.16,51.47,51.47,0,0,0-3.51,7.48l3,.4.73-5.89a1.5,1.5,0,0,0-1.5-1.5,1.55,1.55,0,0,0-1.5,1.5l-.73,5.89a1.48,1.48,0,0,0,1.3,1.47,1.5,1.5,0,0,0,1.64-1.07c.12-.32.24-.63.37-.94,0-.14.11-.29.17-.43l.11-.26c.24-.57.5-1.14.76-1.7.56-1.17,1.16-2.32,1.8-3.44l-2.74-1.15c-.13.5-.27,1-.44,1.49-.09.26-.18.51-.28.76,0,.07-.18.42,0,.1l-.15.35a19,19,0,0,1-1.53,2.71l2-.54a.87.87,0,0,1,.49.93c0,.3,0,.36,0,.2a1.5,1.5,0,0,0-1-1.84,1.54,1.54,0,0,0-1.84,1Z" transform="translate(-3.38 -2.98)"/><path class="cls-2" d="M112.83,104.87l-3.93,5.72,2.59,1.51a17.37,17.37,0,0,1,5.33-6.24L115,103.5a69.7,69.7,0,0,0-7.87,7.69L109.5,113a48.28,48.28,0,0,0,4.76-7.56l-2.59-1.51a20,20,0,0,1-3.5,5l2.35,1.81,4.47-6.55-2.59-1.52a28.9,28.9,0,0,1-4.73,5.56l2.13,2.12a24.21,24.21,0,0,0,4.51-6.55A1.51,1.51,0,0,0,112,102a28.9,28.9,0,0,0-5.39,5.6c-1,1.39,1.2,3,2.36,1.82a25,25,0,0,0,4-5.42,1.51,1.51,0,0,0-2-2.06,14.6,14.6,0,0,0-4.91,4.82,1.5,1.5,0,0,0,2.59,1.51l2.09-3c1-1.38-1.29-3.15-2.36-1.81a89.35,89.35,0,0,0-7.72,11.29,1.5,1.5,0,0,0,2.59,1.52,84,84,0,0,1,7.25-10.69l-2.35-1.82-2.09,3,2.59,1.51a11.51,11.51,0,0,1,3.83-3.74l-2-2a21.74,21.74,0,0,1-3.53,4.82l2.36,1.82a25.84,25.84,0,0,1,4.91-5l-2.35-1.82a21.77,21.77,0,0,1-4,6,1.5,1.5,0,0,0,2.13,2.12,32.6,32.6,0,0,0,5.19-6.16,1.5,1.5,0,0,0-2.59-1.52l-4.47,6.56c-1,1.42,1.19,3,2.36,1.82a22.26,22.26,0,0,0,4-5.65,1.53,1.53,0,0,0-.54-2,1.51,1.51,0,0,0-2,.54,48.28,48.28,0,0,1-4.76,7.56c-1,1.35,1.24,3.09,2.36,1.82a68.78,68.78,0,0,1,7.86-7.69c1.29-1.08-.43-3.34-1.82-2.35a20.44,20.44,0,0,0-6.41,7.32,1.5,1.5,0,0,0,2.59,1.51l3.93-5.72a1.51,1.51,0,0,0-.53-2,1.54,1.54,0,0,0-2.06.54Z" transform="translate(-3.38 -2.98)"/><path class="cls-2" d="M106.19,121.64l2.53-5.87a1.53,1.53,0,0,0-.54-2,1.52,1.52,0,0,0-2.05.53l-3.34,6.36,2.59,1.52a37.86,37.86,0,0,1,2.42-4.75c.45-.76.92-1.49,1.42-2.21.25-.36.51-.71.77-1.07.07-.08.13-.17.2-.26l.06-.08.46-.58-2.35-1.82a24,24,0,0,1-1.68,2.09c-.64.73-1.32,1.41-2,2.07a1.5,1.5,0,0,0-.12,2,1.51,1.51,0,0,0,1.93.39,9.05,9.05,0,0,0,3.78-4,1.5,1.5,0,1,0-2.59-1.51,7.7,7.7,0,0,1-.57,1l-.17.24c.09-.11.08-.09,0,0l-.34.39a8.06,8.06,0,0,1-.8.74c.2-.16-.25.16-.29.19l-.5.3,1.82,2.35a31.62,31.62,0,0,0,4.17-4.77,1.5,1.5,0,0,0-2.36-1.81,40.17,40.17,0,0,0-5.8,9.55,1.55,1.55,0,0,0,.54,2.06,1.53,1.53,0,0,0,2-.54l3.34-6.36-2.59-1.52-2.53,5.88a1.5,1.5,0,1,0,2.59,1.51Z" transform="translate(-3.38 -2.98)"/><path class="cls-2" d="M105.52,113.15v.2a1.15,1.15,0,0,0,.13.58,1.11,1.11,0,0,0,.31.48,1.14,1.14,0,0,0,.48.31,1.08,1.08,0,0,0,.58.13l.4,0a1.44,1.44,0,0,0,.66-.39l.24-.3a1.57,1.57,0,0,0,.2-.76v-.2a1,1,0,0,0-.13-.57,1.34,1.34,0,0,0-.79-.8,1.27,1.27,0,0,0-.58-.13l-.4.06a1.57,1.57,0,0,0-.66.38l-.23.31a1.42,1.42,0,0,0-.21.75Z" transform="translate(-3.38 -2.98)"/><path class="cls-2" d="M118.47,107.23,117,113.16a1.5,1.5,0,0,0,2.74,1.16,17.46,17.46,0,0,0,2.8-7.69,1.48,1.48,0,0,0-.93-1.37,1.46,1.46,0,0,0-1.63.31,24,24,0,0,0-4.42,7.52,1.51,1.51,0,0,0,2.51,1.46,14.27,14.27,0,0,0,3.63-7.28,1.49,1.49,0,0,0-2.5-1.46,26.1,26.1,0,0,0-4.89,6.94,1.5,1.5,0,1,0,2.59,1.51,26.49,26.49,0,0,0,3.65-7.5,1.49,1.49,0,0,0-.87-1.77,1.54,1.54,0,0,0-1.87.61,11.16,11.16,0,0,0-1.9,4.14,1.5,1.5,0,1,0,2.89.8l1.2-4.89a1.5,1.5,0,0,0-2.9-.8l-1.19,4.89,2.89.8c.08-.32.16-.63.26-.94s.13-.36.19-.53.07-.17,0,0l.09-.19a9.85,9.85,0,0,1,1-1.73L117.64,106c-.19.61-.4,1.22-.63,1.82l-.22.55c.09-.23-.07.15-.09.18-.13.29-.26.59-.41.87a24.31,24.31,0,0,1-2,3.37l2.59,1.51a25.85,25.85,0,0,1,2-3.45c.18-.26.37-.51.56-.76s.11-.16,0,0l.18-.23.27-.34c.44-.52.89-1,1.37-1.51l-2.51-1.46a13.08,13.08,0,0,1-.41,1.75c-.09.29-.2.57-.31.85l-.07.19c.06-.14,0-.14,0,0s-.11.26-.17.38a13.5,13.5,0,0,1-.91,1.56l-.24.34-.1.13c-.21.25-.41.5-.63.74l2.5,1.45c.12-.31.24-.62.37-.93l.07-.16.24-.52c.27-.56.56-1.11.87-1.64a18.08,18.08,0,0,1,1-1.56c.09-.14.19-.27.29-.41l.13-.17q-.14.18,0,0c.21-.26.42-.52.64-.77l-2.56-1.06c0,.36,0-.16,0,.17,0,.16,0,.33-.08.49s-.12.57-.19.85a14.69,14.69,0,0,1-.53,1.71l-.15.4c-.18.44.12-.25-.08.17-.12.27-.24.53-.37.78a16.13,16.13,0,0,1-1,1.6l2.74,1.16,1.5-5.94a1.5,1.5,0,0,0-2.9-.79Z" transform="translate(-3.38 -2.98)"/><path class="cls-2" d="M116.93,109.57a14.48,14.48,0,0,1-.57,2.05c0,.14-.1.27-.16.4s-.07.18,0,0a2,2,0,0,0-.11.26c-.14.3-.29.6-.45.89a14,14,0,0,1-1.08,1.67c-.1.14-.11.15,0,0l-.18.22-.28.32c-.25.29-.52.56-.79.82l2.36,1.82,1.47-3.16a1.5,1.5,0,0,0-2.36-1.82,10.93,10.93,0,0,0-3.4,5.19,1.51,1.51,0,0,0,1,1.85,1.54,1.54,0,0,0,1.85-1c.06-.21.13-.41.2-.61s.13-.29,0-.1l.12-.25a8.38,8.38,0,0,1,.66-1.17l.16-.24.07-.09c.13-.17.27-.33.41-.48a8.62,8.62,0,0,1,1-.93l-2.36-1.82L113,116.58a1.54,1.54,0,0,0,.39,1.94,1.5,1.5,0,0,0,2-.12,15.49,15.49,0,0,0,4.42-8,1.53,1.53,0,0,0-1-1.84,1.51,1.51,0,0,0-1.84,1Z" transform="translate(-3.38 -2.98)"/><path class="cls-2" d="M111.46,118.49v.8a1,1,0,0,0,.13.57,1.34,1.34,0,0,0,.79.8,1.27,1.27,0,0,0,.58.13l.39-.06a1.54,1.54,0,0,0,.67-.38l.23-.31a1.42,1.42,0,0,0,.21-.75v-.8a1.25,1.25,0,0,0-.13-.57,1.32,1.32,0,0,0-.8-.8A1.22,1.22,0,0,0,113,117l-.4.06a1.45,1.45,0,0,0-.66.38l-.24.31a1.5,1.5,0,0,0-.2.75Z" transform="translate(-3.38 -2.98)"/><path class="cls-2" d="M118.46,115.24l2.4-1.76-2.26-1.29a1.64,1.64,0,0,1,0,.22l0-.17s-.07.32-.07.34-.08.32-.11.32c.08-.16.09-.19,0-.09a1,1,0,0,1-.07.15,2.14,2.14,0,0,1-.17.3c0,.08-.19.38,0,.07a2.07,2.07,0,0,1-.49.49l2.36,1.82,4.49-5.82L122,108.3c-.23.42-.47.83-.73,1.23-.14.22-.29.43-.44.64l-.19.26s-.27.35-.16.22l-.12.15-.25.3-.47.54c-.34.37-.69.72-1,1.06l2.36,1.82,1.76-2.92a1.51,1.51,0,0,0-.39-1.94,1.53,1.53,0,0,0-2,.12,24.14,24.14,0,0,0-2.42,2.43c-.42.5-.83,1-1.22,1.54a4,4,0,0,0-.82,1.59,2.27,2.27,0,0,0,.66,2.19,2.06,2.06,0,0,0,2.43.31,4.54,4.54,0,0,0,1.31-1.87l.92-1.66a1.5,1.5,0,1,0-2.59-1.52l-1.34,2.43c-.06.11-.13.22-.18.32-.21.37.08.22.9-.43l.24,0a.79.79,0,0,1,.58.77c0,.14-.08.2,0,0-.16.3,0,0,0,0a4.3,4.3,0,0,1,.35-.52l.15-.21c.07-.09.18-.23,0-.06.13-.18.27-.35.41-.52s.54-.63.82-.94c.59-.63,1.21-1.23,1.85-1.79l-2.35-1.81L118.32,113a1.49,1.49,0,0,0,.38,1.93,1.52,1.52,0,0,0,2-.11,20.72,20.72,0,0,0,3.88-5,1.51,1.51,0,0,0-.53-2,1.55,1.55,0,0,0-2.06.53l-4.49,5.82a1.49,1.49,0,0,0,.39,1.94,1.53,1.53,0,0,0,2-.12,5.39,5.39,0,0,0,1.77-3.75,1.51,1.51,0,0,0-2.26-1.3L117,112.65a1.54,1.54,0,0,0-.54,2,1.51,1.51,0,0,0,2,.54Z" transform="translate(-3.38 -2.98)"/><path class="cls-2" d="M123.15,112.72l.63-1.11-2.8-.76-.13,4.46c0,1.2,1.74,2.1,2.57,1.06a12.89,12.89,0,0,0,2.12-3.84l-2.89-.8-1.42,4.6c-.43,1.36,1.54,2.64,2.5,1.46a15.21,15.21,0,0,0,2.67-4.74c.56-1.6-1.94-2.64-2.74-1.15l-2.06,3.81a1.5,1.5,0,0,0,2.59,1.52l2.12-3.37-2.75-1.15-1.18,3.91,3,.4.19-1.63c.15-1.34-1.72-1.91-2.57-1.06l-2.29,2.31a1.51,1.51,0,0,0-.11,2,1.52,1.52,0,0,0,1.93.38,5.48,5.48,0,0,0,2.2-2,1.52,1.52,0,0,0-1.7-2.21,2.45,2.45,0,0,0-1.71,3.06,1.56,1.56,0,0,0,1.45,1.11l.69,0-1.44-1.1s0,0,0,0a1.5,1.5,0,0,0,2.35,1.82l1.51-1.28c1.29-1.11-.4-3.29-1.82-2.36l-2.08,1.36a1.5,1.5,0,0,0,1.52,2.59l2.53-1.44L124.46,116a4.26,4.26,0,0,0-1.82,2.31,1.47,1.47,0,0,0,.54,1.57,1.52,1.52,0,0,0,1.66.12l2.26-1.06L125,116.85a2.9,2.9,0,0,1-1.12.92l1.51,2.59,3.74-2.11-1.51-2.59-2.13,1.45a1.51,1.51,0,0,0,1.52,2.6l1.54-.66-1.52-2.6-2.34,1.39,1.82,2.35L130,117a1.52,1.52,0,0,0-.67-2.51l-3.82-.67.67,2.51,1.06-1.26-2.36-.3.66,1a1.52,1.52,0,0,0,2.74-.36,6.8,6.8,0,0,0-.6-4.56,1.51,1.51,0,0,0-2.79.76l0,1.34c.06,1.93,3,1.94,3,0l-.09-6.14a1.5,1.5,0,0,0-3,0l-.13,1.33a1.5,1.5,0,0,0,1.5,1.5,1.54,1.54,0,0,0,1.5-1.5l.13-1.33h-3l.09,6.14h3l0-1.34-2.8.75a3.46,3.46,0,0,1,.3,2.26l2.74-.36-.65-1a1.52,1.52,0,0,0-2.36-.31l-1.07,1.26c-.65.77-.54,2.3.67,2.51l3.82.67-.66-2.51-3.46,3.15c-1.26,1.16.37,3.21,1.82,2.36l2.35-1.38a1.51,1.51,0,0,0-1.52-2.6l-1.54.66,1.52,2.6,2.12-1.46a1.5,1.5,0,0,0-1.51-2.59l-3.74,2.11a1.5,1.5,0,1,0,1.51,2.59,6.12,6.12,0,0,0,2.21-2,1.53,1.53,0,0,0-.24-1.82,1.56,1.56,0,0,0-1.82-.23l-2.25,1.06,2.2,1.7a1,1,0,0,1,.44-.52,1.5,1.5,0,0,0-1.51-2.59l-2.54,1.44,1.52,2.59,2.07-1.36-1.82-2.35-1.5,1.28,2.36,1.82a3.47,3.47,0,0,0,.31-2.26,1.53,1.53,0,0,0-1.45-1.11l-.69,0,1.45,1.1a.63.63,0,0,1-.39.62l-1.69-2.2a2.55,2.55,0,0,1-1.12.89l1.82,2.36,2.29-2.31-2.56-1.06-.19,1.63a1.47,1.47,0,0,0,1.3,1.47,1.5,1.5,0,0,0,1.64-1.07l1.19-3.92a1.51,1.51,0,0,0-2.74-1.15l-2.12,3.36,2.59,1.52,2.06-3.82-2.74-1.15a11.16,11.16,0,0,1-1.9,3.4l2.51,1.46,1.42-4.59a1.5,1.5,0,0,0-2.89-.8,8.66,8.66,0,0,1-1.36,2.52l2.56,1.06.13-4.46a1.51,1.51,0,0,0-2.79-.76l-.63,1.12c-.94,1.69,1.65,3.2,2.59,1.51Z" transform="translate(-3.38 -2.98)"/><path class="cls-2" d="M125.6,112.54a6.35,6.35,0,0,0-1.48-6.09,1.51,1.51,0,0,0-2.51.66,9.51,9.51,0,0,0,.79,5.87,1.45,1.45,0,0,0,1.49.71,1.47,1.47,0,0,0,1.25-1.07,10.68,10.68,0,0,0-2.24-8.22,1.5,1.5,0,0,0-2.5.67,11.9,11.9,0,0,0-.05,4.53,1.5,1.5,0,0,0,2.94-.4l-.38-7.12a1.54,1.54,0,0,0-1.5-1.5,1.51,1.51,0,0,0-1.5,1.5l.38,7.12,2.95-.4a8.31,8.31,0,0,1,.05-2.94l-2.51.67.11.15a4,4,0,0,1,.23.34c.14.23.28.47.4.71a6.16,6.16,0,0,1,.5,1.32,6.66,6.66,0,0,1,.23,1.29c0,.28,0,.55,0,.82s0,.27,0,.41-.05.48,0,.25l2.75-.36a6.32,6.32,0,0,1-.49-3.55l-2.5.66.2.22c-.08-.1-.06-.08,0,.06s.16.25.23.39.1.18.14.27c0-.13,0-.11,0,.06a4.28,4.28,0,0,1,.15.51c0,.06.08.54.06.27,0,.17,0,.35,0,.53s0,.55,0,.27a3.9,3.9,0,0,1-.14.59,1.5,1.5,0,1,0,2.89.8Z" transform="translate(-3.38 -2.98)"/><path class="cls-2" d="M127.25,106a18.33,18.33,0,0,1-4.33-5.91c-.58-1.25-2.38-.77-2.74.36a9.69,9.69,0,0,0,.48,7.08l2.59-1.52-2.2-4.29a1.52,1.52,0,0,0-2.74.36l-.51,2.14,2.74-.36a6.24,6.24,0,0,0-3.35-3.4,3.55,3.55,0,0,0-2.3,0c-.13,0-1,.35-1,.52.12-.58.87.25.9.35v.33c-.2.27-.2.32,0,.15a1.5,1.5,0,0,0,0-2.12,1.54,1.54,0,0,0-2.12,0,2.38,2.38,0,0,0,2.4,4,8.28,8.28,0,0,1,1-.47c-.16,0,.23.05.09,0a1.69,1.69,0,0,1,.42.15,4.49,4.49,0,0,1,1.41,2,1.52,1.52,0,0,0,2.74-.36l.52-2.14-2.75.36,2.2,4.29a1.52,1.52,0,0,0,2.06.53,1.53,1.53,0,0,0,.53-2.05,6.6,6.6,0,0,1-.18-4.77l-2.74.36a20.43,20.43,0,0,0,4.8,6.52,1.53,1.53,0,0,0,2.12,0,1.5,1.5,0,0,0,0-2.12Z" transform="translate(-3.38 -2.98)"/><path class="cls-2" d="M112.17,95.69c.32.13,0-.06-.08-.08s.13.12,0,0a.8.8,0,0,1-.13-.13c-.22-.18.07.19-.08-.08,0-.07-.19-.4-.06-.09l-2.51,1.46c.16.21,0,0,.07.09l.16.23c.12.18.24.36.34.54s.24.41.34.62l.12.26c.11.24,0-.06,0,.1.13.4.28.8.38,1.21q.07.31.12.63c0,.12,0,.17,0,0,0,.14,0,.28,0,.42l2.79-.76-1.57-3.35-2.06,2.06.32.22c-.12-.08-.11-.09,0,0s.35.31.52.47.29.31.43.48.17.21,0,0l.22.32a8.1,8.1,0,0,1,.61,1.12c-.14-.3,0,.07,0,.12s.07.2.1.3.13.45.18.68a1.51,1.51,0,0,0,2.89,0l.2-.77c.27-1-.73-2.29-1.84-1.85a10.06,10.06,0,0,0-4.28,3.08l2.56,1.06c0-.26,0-.51,0-.77,0,0,0-.41,0-.26s.06-.26,0-.25c0-.23.11-.45.17-.67l.12-.37s.17-.43.07-.21a1.54,1.54,0,0,0-.11-1.66,1.47,1.47,0,0,0-1.58-.54,5.26,5.26,0,0,0-3.37,3.94l2.89.8a1.89,1.89,0,0,1,0-.23.35.35,0,0,1-.1.21.36.36,0,0,1-.16.14c.14-.08.13-.07,0,0a1.5,1.5,0,1,0-.8-2.89,2.53,2.53,0,0,0-1.84,2,1.55,1.55,0,0,0,1,1.85,1.51,1.51,0,0,0,1.84-1,3.57,3.57,0,0,1,.11-.47c0-.06.15-.43,0-.1a2.75,2.75,0,0,1,.2-.38c0-.06.29-.42.07-.15l.24-.27c.05,0,.45-.38.16-.16a3.21,3.21,0,0,1,.3-.21c.06,0,.53-.24.19-.11l-1.7-2.2a10,10,0,0,0-.87,4,1.52,1.52,0,0,0,.93,1.37,1.47,1.47,0,0,0,1.63-.31c.23-.28.46-.55.71-.8l.4-.37s.47-.37.21-.19a10.61,10.61,0,0,1,.9-.58l.48-.25.24-.11c-.15.06-.15.06,0,0l-1.84-1.84-.2.77h2.89a9.14,9.14,0,0,0-3.85-5.55,1.51,1.51,0,0,0-1.82.24,1.57,1.57,0,0,0-.23,1.82l1.57,3.35a1.52,1.52,0,0,0,2.8-.76,11.09,11.09,0,0,0-2.5-6.24A1.5,1.5,0,0,0,109,96.16a4.07,4.07,0,0,0,2.4,2.42,1.51,1.51,0,0,0,1.85-1,1.55,1.55,0,0,0-1-1.84Z" transform="translate(-3.38 -2.98)"/><path class="cls-2" d="M87.5,75.12a9,9,0,0,0,4.69,2.46,1.67,1.67,0,0,0,1.16-.15,1.52,1.52,0,0,0,.53-2.06,1.47,1.47,0,0,0-.89-.69,7.16,7.16,0,0,1-1.64-.47l.36.15a7.79,7.79,0,0,1-1.7-1l.3.23a7.92,7.92,0,0,1-.69-.61,1.5,1.5,0,0,0-2.12,2.13Z" transform="translate(-3.38 -2.98)"/><path class="cls-2" d="M90,77.29A31.41,31.41,0,0,0,106.6,80a1.54,1.54,0,0,0,1.5-1.5,1.51,1.51,0,0,0-1.5-1.5,28.5,28.5,0,0,1-15-2.34,1.55,1.55,0,0,0-2.06.54A1.52,1.52,0,0,0,90,77.29Z" transform="translate(-3.38 -2.98)"/><path class="cls-2" d="M94.15,77.67l11.48,2.44a1.5,1.5,0,0,0,.8-2.89L95,74.78a1.5,1.5,0,1,0-.8,2.89Z" transform="translate(-3.38 -2.98)"/><path class="cls-2" d="M99.28,78.59a43.61,43.61,0,0,0,7.93,1.47c1.75.16,2-2.46.4-3a54.27,54.27,0,0,0-15.23-2.47c-1.93,0-1.93,3,0,3A51.2,51.2,0,0,1,106.81,80l.4-2.94a39.19,39.19,0,0,1-7.13-1.36,1.5,1.5,0,0,0-.8,2.89Z" transform="translate(-3.38 -2.98)"/><path class="cls-2" d="M83.64,73.33a8.85,8.85,0,0,0,4,1.21A1.5,1.5,0,0,0,88.7,72a1.66,1.66,0,0,0-1.06-.44l-.51-.05.4.06a7.23,7.23,0,0,1-1.82-.5l.36.15a7.76,7.76,0,0,1-.91-.46,1.5,1.5,0,1,0-1.52,2.59Z" transform="translate(-3.38 -2.98)"/><path class="cls-2" d="M90.6,77.23a42,42,0,0,1,9.46,1.59,1.5,1.5,0,0,0,1.84-1,1.53,1.53,0,0,0-1-1.85,45.74,45.74,0,0,0-10.26-1.7,1.5,1.5,0,0,0-1.5,1.5,1.52,1.52,0,0,0,1.5,1.5Z" transform="translate(-3.38 -2.98)"/><path class="cls-2" d="M104.65,80.24a40,40,0,0,1,10.42.32l.4-3a15.64,15.64,0,0,1-5.7-.39l-.4,3,2.49-.23a1.5,1.5,0,0,0,0-3l-6.57-.54v3l11.7.53-.75-2.79a3.93,3.93,0,0,1-2.55.26l-.4,2.94a34.47,34.47,0,0,1,6.26.2v-3l-2.64.09v3l5.3-.25c1.62-.08,2.11-2.54.39-2.95l-.91-.21-.39,3,3.62-.42a1.54,1.54,0,0,0,1.5-1.5,1.5,1.5,0,0,0-1.5-1.5l-3.62.42c-1.56.18-2.19,2.53-.4,2.94l.91.22.4-3-5.3.25c-1.92.09-1.94,3.07,0,3l2.64-.09a1.5,1.5,0,0,0,0-3,34.47,34.47,0,0,0-6.26-.2c-1.61.1-2.13,2.56-.4,3a7.28,7.28,0,0,0,4.86-.56c1.43-.68.62-2.73-.76-2.8l-11.7-.53c-2-.09-1.9,2.84,0,3l6.57.54v-3l-2.49.23c-1.59.15-2.14,2.5-.4,3a18.48,18.48,0,0,0,6.5.49,1.52,1.52,0,0,0,1.47-1.3,1.5,1.5,0,0,0-1.07-1.65,43.48,43.48,0,0,0-11.22-.42c-1.91.18-1.93,3.18,0,3Z" transform="translate(-3.38 -2.98)"/><path class="cls-2" d="M112.11,74.28a47.69,47.69,0,0,0,14.12,4.48,1.54,1.54,0,0,0,1.84-1.05,1.51,1.51,0,0,0-1-1.85,45.1,45.1,0,0,1-13.4-4.17,1.54,1.54,0,0,0-2.05.54,1.51,1.51,0,0,0,.54,2Z" transform="translate(-3.38 -2.98)"/><path class="cls-2" d="M125.35,80.18a31,31,0,0,1,12.81,1,14.2,14.2,0,0,1,5.2,2.4c1.22,1,2.24,2.84,1.45,4.43s1.73,3.25,2.59,1.51a6.42,6.42,0,0,0-.48-6.43A11.6,11.6,0,0,0,141.09,79a32.82,32.82,0,0,0-15.74-1.81,1.55,1.55,0,0,0-1.5,1.5,1.52,1.52,0,0,0,1.5,1.5Z" transform="translate(-3.38 -2.98)"/><path class="cls-2" d="M147.84,91.07a12.29,12.29,0,0,1,3-2.3,1.5,1.5,0,0,0,.61-1.88,1.49,1.49,0,0,0-1.77-.87,17.32,17.32,0,0,0-3,1.59c-1,.7-2.26,1.53-2.07,3a1.77,1.77,0,0,0,1.8,1.5,2.73,2.73,0,0,0,1.81-1,12.51,12.51,0,0,0,2-2.65,1.51,1.51,0,0,0-1.69-2.2,7.11,7.11,0,0,0-2.67,1.21,1.86,1.86,0,0,0,.25,3.17c1.81.9,4.39-.63,4.75-2.53a2.9,2.9,0,0,0-.85-2.79,2.64,2.64,0,0,0-2.61-.49,2.4,2.4,0,0,0-1.6,2.61,2.67,2.67,0,0,0,2.47,2.23c2.27.24,4.22-2.45,2.53-4.31a2.21,2.21,0,0,0-3.1-.12,2.14,2.14,0,0,0-.1,3,2.75,2.75,0,0,0,4.73-.65,2.85,2.85,0,0,0-3.11-3.84,2.29,2.29,0,0,0-1.6,3.2,2.1,2.1,0,0,0,3.33.53,2.24,2.24,0,0,0,.49-2.06,2.69,2.69,0,0,0-1.14-1.49,31,31,0,0,0-2.72-1.63,1.5,1.5,0,0,0-2.05.54,1.77,1.77,0,0,0,2.77,2.14,1.47,1.47,0,0,0,.39-1.46A2.75,2.75,0,0,0,146,81.52a1.52,1.52,0,0,0-1.06,2.56,3.08,3.08,0,0,0,2.4,1,1.52,1.52,0,0,0,.76-2.8,13.94,13.94,0,0,0-7.54-2.47,1.5,1.5,0,0,0,0,3,10.46,10.46,0,0,1,3.16.58,11.15,11.15,0,0,1,2.86,1.48l.76-2.79c-.18,0-.2,0-.05,0-.16,0-.19-.06-.11,0s.06,0-.09-.06c.11.07.1,0,0-.07L146,84.52c.18,0,.18,0,0,0s-.13-.08,0,0-.1-.13-.14-.23l.39-1.45-.07,0,.66-.38h.71l.61.47.2.76V83.6l-.21.76,0-.09-2.05.54c.8.47,1.62.93,2.42,1.42l.24.16a.21.21,0,0,1-.13-.13c-.1-.53-.23-1.64,1.15-1.2,1,.33.52,2-.25,1.42.31.23-.23-.21.05,0q-.11-.27,0,0c0,.17,0,.15,0-.06,0,.18,0,.16,0,0a.9.9,0,0,1-.06.22c-.11-.09.35-.39.08-.19a.42.42,0,0,1,.27-.16q-.26.06.06,0c-.17,0-.15,0,.06,0q-.24-.07,0,0c-.12-.08-.13-.08,0,0s.08.07,0,0c.11.16.13.17,0,0a.92.92,0,0,1-.21,1.1.81.81,0,0,1-1.1,0l-.2-.34q.08.25,0,0a.54.54,0,0,1,.18-.42c-.15.08-.16.09,0,0-.18,0-.19,0,0,0-.19.07-.13-.07.05,0a.41.41,0,0,1,.14.36.72.72,0,0,1-.3.52l-.17.07c.17,0,.14,0-.07,0,.17,0,.15,0-.07,0,.16,0,.15,0-.05,0a.48.48,0,0,1-.19-.21c.09.15.09.15,0,0l0,.13c0-.18,0-.18,0,0,0-.17,0-.17,0,0s-.06.17,0,0c-.08.14-.09.15,0,0-.12.11-.15.14-.07.08s-.44.24-.15.11a4.31,4.31,0,0,1-.58.16.39.39,0,0,1,.28,0,1.18,1.18,0,0,1,.48.38l.21.76c-.57.74-.67,1-.29.71l.15-.09a4.58,4.58,0,0,1,.54-.28,8.59,8.59,0,0,1,.86-.26l-1.7-2.2c-.13.24-.28.48-.43.71L147,88l-.12.16c-.16.2-.33.39-.5.58l-.29.3-.12.12c-.34.28-.11.26.69-.07l.66.39.11.14.21.76a2.07,2.07,0,0,1-.1.33q-.15.16,0,.06c.11,0,.17-.14.23-.19.31-.23.63-.45,1-.65s.61-.37.92-.54.74-.37.93-.45l-1.15-2.74A15.22,15.22,0,0,0,145.72,89a1.5,1.5,0,0,0,2.12,2.12Z" transform="translate(-3.38 -2.98)"/><path class="cls-2" d="M132.52,81.24c3.79.65,8.19,1.3,11,4.21,2.41,2.52,1.55,6-1.36,7.65a1.51,1.51,0,0,0,1.16,2.74,6.05,6.05,0,0,0,4.46-4.38,8,8,0,0,0-2.19-7c-1-1.16-2.86.08-2.51,1.46a6.14,6.14,0,0,1-.73,5.51c-1.17,1.5-2.76,2.52-3.66,4.25a9,9,0,0,0-1,3.11,6,6,0,0,1-.49,2.38c-1,1.8-2.94,2.77-4.8,3.4s-1,3.52.8,2.9a12.21,12.21,0,0,0,5.88-3.75,6.71,6.71,0,0,0,1.47-3.28,9.54,9.54,0,0,1,.69-3.24c1-1.91,3-3,4.05-4.84A9.53,9.53,0,0,0,146,85.1l-2.51,1.46c1.83,2.07,2.23,5.5-.95,6.38l1.16,2.75c3.83-2.19,5.65-7.08,3.09-11-2.92-4.42-8.56-5.55-13.42-6.4-1.89-.33-2.7,2.56-.8,2.9Z" transform="translate(-3.38 -2.98)"/><path class="cls-2" d="M133.42,106.6c0-.09.07-.19.11-.28.1-.26-.09.2,0,0l.21-.46c.16-.31.33-.63.51-.93s.38-.6.59-.89c0,0,.09-.16.15-.2-.12.08-.16.2,0,0l.36-.42a12,12,0,0,1,1.49-1.45,1.39,1.39,0,0,1,.19-.15c-.15.12-.19.14-.1.08l.12-.09.42-.3c.3-.2.62-.4.95-.58a1.51,1.51,0,0,0,.53-2,1.54,1.54,0,0,0-2-.54,14.22,14.22,0,0,0-6.34,7.41,1.5,1.5,0,0,0,1,1.85,1.54,1.54,0,0,0,1.85-1.05Z" transform="translate(-3.38 -2.98)"/><path class="cls-3" d="M130.66,101.68C138,93.2,140.7,89.2,140,88.51c-.25-.27-1.23-.28-1.54-1a1.86,1.86,0,0,1,0-1c0-.88-2.12-2.4-7-3-8.58-1.06-32-.06-35.26.08L75.47,81s0-1.54,0-.54S81.68,86,92.59,85.26c1.64-.11,2.81-.21,3.61-.29,4.51-.47-2.7-.47-2.7-.47s2.06.15,2-.42-2.16-.5-2.16-.5S97.45,85,97,85.26s2.82,7.22,2.82,7.22,4.7,4,5.2,4.51-7.57-4.12-7.57-4.12l28.23,14.28" transform="translate(-3.38 -2.98)"/><path class="cls-3" d="M93.45,85.2c0,1.3,2.08,7.38,2.08,7.38l4.93,2-1.06-3-1.86-4.28L97,85.26" transform="translate(-3.38 -2.98)"/><path class="cls-2" d="M94.07,87.06a1.5,1.5,0,0,0,0-3,1.5,1.5,0,0,0,0,3Z" transform="translate(-3.38 -2.98)"/><path class="cls-2" d="M94,87.06a1.5,1.5,0,0,0,0-3,1.5,1.5,0,0,0,0,3Z" transform="translate(-3.38 -2.98)"/><path class="cls-2" d="M92.7,87.84a18.19,18.19,0,0,0,1.2,5,1.61,1.61,0,0,0,.69.89,1.49,1.49,0,0,0,1.15.15,1.46,1.46,0,0,0,.9-.69A1.42,1.42,0,0,0,96.79,92,17.44,17.44,0,0,1,95.7,88l.06.4a4.43,4.43,0,0,1-.06-.51,1.66,1.66,0,0,0-.44-1.06,1.56,1.56,0,0,0-1.06-.44,1.54,1.54,0,0,0-1.06.44,1.4,1.4,0,0,0-.44,1.06Z" transform="translate(-3.38 -2.98)"/><path class="cls-2" d="M92.79,90.1c.14-.12-.39.2-.19.12a2.11,2.11,0,0,1-.48.12,2.91,2.91,0,0,0-.39,0l-.62,0c-1,0-1.89-.14-2.84-.16a33.61,33.61,0,0,0-6.33.53l.8,2.89.36-.14a1.54,1.54,0,0,0,1-1.85,1.51,1.51,0,0,0-1.84-1l-.36.15a1.55,1.55,0,0,0-1,1.84,1.53,1.53,0,0,0,1.85,1,29.51,29.51,0,0,1,6.44-.39c2,.09,4.08.5,5.74-1a1.52,1.52,0,0,0,0-2.12,1.54,1.54,0,0,0-2.13,0Z" transform="translate(-3.38 -2.98)"/><path class="cls-2" d="M91.17,92.35A5.66,5.66,0,0,0,95,89.53a1.54,1.54,0,0,0-.24-1.82,1.81,1.81,0,0,0-.66-.38,1.59,1.59,0,0,0-1.15.15,5,5,0,0,0-2.61,3,1.5,1.5,0,0,0,2.51,1.46,8.13,8.13,0,0,0,1.62-2.4,1.94,1.94,0,0,0,.2-.75,1.52,1.52,0,0,0-1.9-1.45,25.59,25.59,0,0,0-3.89,1.84l2.25,1.29v-.06l-.06.39c0-.07,0-.13,0-.19L91,91a1.83,1.83,0,0,1,.13-.24l-.23.3a1.7,1.7,0,0,1,.19-.19l-.3.24.17-.11-.35.16a1,1,0,0,1,.25-.08l-.39.06h.06l-.39-2.94-1.53.49,1.15,2.74c.21-.11.41-.21.62-.3l-.35.16a8.47,8.47,0,0,1,2.15-.59l-.4.06a8.08,8.08,0,0,1,1.63,0,1.5,1.5,0,0,0,1.5-1.5v-.21l-.05.4a1.19,1.19,0,0,1,.07-.27l-.15.36a1.08,1.08,0,0,1,.11-.18l-.23.3a1,1,0,0,1,.14-.15l-.3.23.11-.07a1.53,1.53,0,0,0,.69-1.7,1.55,1.55,0,0,0-1.44-1.1,7.88,7.88,0,0,0-4.06,1,1.51,1.51,0,0,0-.54,2,1.54,1.54,0,0,0,2.06.54c.2-.11.4-.21.61-.3l-.36.15a6.65,6.65,0,0,1,1.57-.43l-.4.06a7,7,0,0,1,1.12-.06L93.06,87a2.4,2.4,0,0,0-1.19,2.18l1.5-1.5a9.74,9.74,0,0,0-5.16,1.13,1.5,1.5,0,0,0,1.15,2.74L90.89,91a1.5,1.5,0,0,0-.4-3,2.51,2.51,0,0,0-1.66.71,2.54,2.54,0,0,0-.72,1.66,1.52,1.52,0,0,0,2.26,1.3A23.14,23.14,0,0,1,93,90.42l-.36.16.91-.37L91.86,88A7.47,7.47,0,0,1,91,89.53l.24-.31a6.8,6.8,0,0,1-.5.57l2.51,1.46c0-.09.06-.18.1-.27l-.15.36a3.51,3.51,0,0,1,.44-.75l-.23.3a3.52,3.52,0,0,1,.61-.61l-.3.23a3.51,3.51,0,0,1,.75-.44l-2-2a6.17,6.17,0,0,1-.39.6l.23-.31a4,4,0,0,1-.71.71l.31-.23a4.5,4.5,0,0,1-1,.58l.35-.15a3.86,3.86,0,0,1-.82.24,1.55,1.55,0,0,0-.9.69,1.51,1.51,0,0,0-.15,1.16,1.54,1.54,0,0,0,1.85,1Z" transform="translate(-3.38 -2.98)"/><path class="cls-4" d="M87.64,75.09c-.1.31-3.46-3-5.17-4.63l-1-1h-.88l1.14,1.1.93.9,6.83,3.65,4.94,3.58" transform="translate(-3.38 -2.98)"/><path class="cls-3" d="M90,90.78C80,91.29,72.28,91.84,65.5,92.5c-4,.39-10,1-14.63-2.59a13.75,13.75,0,0,1-1.1-1A14.06,14.06,0,0,1,48.5,87.5a16.22,16.22,0,0,0,6,6,17.24,17.24,0,0,0,7,2c4.41.51,5.49-.53,13-1,4.77-.3,4.9.08,7.52-.43,4.84-.94,8.29-3,8.37-2.81s-4,2.33-4,2.34h0a9.3,9.3,0,0,1,2.14-5.1c.57-.59,1.07-.85,1-1s-2.18.36-4,1c0,0-16.9,2.81-17,2.41s-5.61.9-6.33.74-4.75-.12-4.75-.12l-4-1-1.63-1" transform="translate(-3.38 -2.98)"/><path class="cls-2" d="M51.72,88.83l-.06,0,.4,0H52l.4,0-.07,0,.36.15-.07,0,.31.24-.06-.06.23.31,0-.07.15.36s0,0,0-.06l.06.4a.06.06,0,0,1,0-.06l-.06.4h0a1.66,1.66,0,0,0-.15-1.16,1.18,1.18,0,0,0-.38-.42,1.26,1.26,0,0,0-.51-.27l-.4,0a1.54,1.54,0,0,0-.76.2l-.3.24a1.49,1.49,0,0,0-.39.66c0,.14-.05.29-.06.43a3.43,3.43,0,0,0,.06.43.06.06,0,0,0,0,0,3.2,3.2,0,0,0,.16.39l0,0c.07.11.17.22.25.33l0,0a2.85,2.85,0,0,0,.33.25l0,0a3.2,3.2,0,0,0,.39.16h0a3,3,0,0,0,.43.06h0a3,3,0,0,0,.43-.06h0a1.26,1.26,0,0,0,.51-.27,1.31,1.31,0,0,0,.39-.42,1.82,1.82,0,0,0,.15-1.16l-.15-.36a1.61,1.61,0,0,0-.54-.53l-.36-.16a1.55,1.55,0,0,0-.8,0Z" transform="translate(-3.38 -2.98)"/><path class="cls-2" d="M50.75,91a1.5,1.5,0,0,0,0-3,1.5,1.5,0,0,0,0,3Z" transform="translate(-3.38 -2.98)"/><path class="cls-2" d="M56,93.69A38.82,38.82,0,0,0,75.15,93l-.8-2.89a32.94,32.94,0,0,1-9.56,1.47l.4,2.94a74.08,74.08,0,0,1,8.21-1.78l-.8-2.9A16.46,16.46,0,0,1,66,91.14c-1.94,0-1.92,2.92,0,3l1,0c1.93.08,1.92-2.92,0-3l-1,0v3a18.94,18.94,0,0,0,7.4-1.39,1.51,1.51,0,0,0-.8-2.9,74.12,74.12,0,0,0-8.21,1.79,1.51,1.51,0,0,0,.4,3A36,36,0,0,0,75.15,93c1.84-.56,1.07-3.44-.8-2.89a35.53,35.53,0,0,1-17.56.67c-1.88-.4-2.68,2.49-.79,2.9Z" transform="translate(-3.38 -2.98)"/><path class="cls-2" d="M72,93.17l9.31-1.57c1.65-.28,1.29-3.16-.4-2.95l-4.84.61a1.54,1.54,0,0,0-1.5,1.5,1.52,1.52,0,0,0,1.5,1.5,18.69,18.69,0,0,0,10.7-2.6,1.5,1.5,0,0,0-1.51-2.59,15.92,15.92,0,0,1-9.19,2.19v3L81,91.65l-.39-2.94-9.32,1.57a1.51,1.51,0,0,0-1,1.84,1.53,1.53,0,0,0,1.85,1Z" transform="translate(-3.38 -2.98)"/><path class="cls-2" d="M97.44,95.77l2-.31-.79-2.89a17,17,0,0,0-4.09,1.37,1.51,1.51,0,0,0-.69,1.69,1.53,1.53,0,0,0,1.44,1.1A12.88,12.88,0,0,0,99.67,96a1.68,1.68,0,0,0,.9-.69,1.5,1.5,0,0,0-1.69-2.21l-4.83,1.08a1.51,1.51,0,0,0,.4,3,6.63,6.63,0,0,0,4.62-1.75A1.51,1.51,0,0,0,98,92.77h-.78a1.5,1.5,0,0,0,0,3H98l-1.07-2.56c-.09.09-.19.17-.3.26l.31-.24a5.19,5.19,0,0,1-1.09.64l.36-.15a5.36,5.36,0,0,1-1.3.37l.4-.06a5.08,5.08,0,0,1-.87,0l.4,2.94L99.67,96l-.79-2.9a11.31,11.31,0,0,1-2.5.63l.4-.05a11.17,11.17,0,0,1-1.42.1l.76,2.8.66-.29-.36.15a16.47,16.47,0,0,1,3.07-.93,1.5,1.5,0,0,0,.36-2.74,1.69,1.69,0,0,0-1.15-.15l-2.06.31a1.5,1.5,0,0,0-1,1.84,1.46,1.46,0,0,0,.69.9,1.69,1.69,0,0,0,1.15.15Z" transform="translate(-3.38 -2.98)"/><path class="cls-2" d="M96,97.57l6.54-1L101,94l-.22.17a1.5,1.5,0,0,0,0,2.12,1.46,1.46,0,0,0,1.06.44,1.76,1.76,0,0,0,1.06-.44l.22-.17a1.5,1.5,0,0,0,.23-1.82,1.59,1.59,0,0,0-1.69-.69l-6.54,1.06a1.5,1.5,0,0,0-1.05,1.84,1.53,1.53,0,0,0,1.85,1Z" transform="translate(-3.38 -2.98)"/><path class="cls-2" d="M103.73,96.34a1.94,1.94,0,0,1-.28,1,3.12,3.12,0,0,1-.76,1,5.61,5.61,0,0,1-1.13.79c-.25.14-.5.26-.75.38s-.42.19-.58.25l1.16,2.75a12.61,12.61,0,0,0,5-6.13,1.5,1.5,0,0,0-2.75-1.15,12.48,12.48,0,0,1-.77,1.26l-.17.24c-.28.38.08-.1-.09.11s-.31.38-.48.56a11.68,11.68,0,0,1-1,1,6.57,6.57,0,0,1-.57.48l-.11.08-.3.21a13.48,13.48,0,0,1-1.21.74c-.21.11-.44.23-.66.33l-.34.15,0,0c-.47.17-.93.33-1.41.46l-.65.15-.37.06s-.47.07-.19,0a1.54,1.54,0,0,0-1.5,1.5c0,.72.67,1.6,1.5,1.5a14.48,14.48,0,0,0,11-7.37l-2.74-1.16c-.18.47.06-.11-.06.15s-.1.24-.16.36-.24.46-.37.69-.27.44-.42.66l-.27.38c.11-.15-.07.08-.1.12a9.45,9.45,0,0,1-2.22,2,1.5,1.5,0,0,0-.61,1.87,1.49,1.49,0,0,0,1.77.87,11.38,11.38,0,0,0,3.89-2.31,6,6,0,0,0,1.81-4,1.5,1.5,0,0,0-1.5-1.5,1.54,1.54,0,0,0-1.5,1.5Z" transform="translate(-3.38 -2.98)"/><path class="cls-2" d="M98.2,103.5c.45-.27.91-.53,1.37-.77l.76-.36a1.48,1.48,0,0,1,.29-.12c-.4.1,0,0,.12,0a18.87,18.87,0,0,1,3-.92l-1.15-2.74a7.41,7.41,0,0,1-1,.56c-.25.12.2-.07,0,0l-.25.08a4,4,0,0,1-.59.17,1.52,1.52,0,0,0-1.05,1.85,1.55,1.55,0,0,0,1.85,1,7.86,7.86,0,0,0,2.51-1.11,1.53,1.53,0,0,0,.62-1.87,1.5,1.5,0,0,0-1.77-.87,20.18,20.18,0,0,0-6.26,2.52,1.5,1.5,0,1,0,1.51,2.59Z" transform="translate(-3.38 -2.98)"/><path class="cls-2" d="M96.63,101.62l-1.48.59a1.26,1.26,0,0,0-.51.27,1.31,1.31,0,0,0-.39.42,1.82,1.82,0,0,0-.15,1.16l.15.36a1.61,1.61,0,0,0,.54.53l.36.16a1.55,1.55,0,0,0,.8,0l1.48-.6a1,1,0,0,0,.51-.27,1.06,1.06,0,0,0,.39-.42,1.12,1.12,0,0,0,.18-.55,1.22,1.22,0,0,0,0-.6l-.15-.36a1.47,1.47,0,0,0-.54-.54l-.36-.15a1.55,1.55,0,0,0-.8,0Z" transform="translate(-3.38 -2.98)"/><path class="cls-2" d="M92.61,102.85l-.18.09.36-.16a3,3,0,0,1-.72.2l.4-.06a3.05,3.05,0,0,1-.74,0l.4,0a1.86,1.86,0,0,1-.34-.06,1.54,1.54,0,0,0-1.15.15,1,1,0,0,0-.42.39A1,1,0,0,0,90,104a1.49,1.49,0,0,0,.15,1.15,1.52,1.52,0,0,0,.9.69,4.46,4.46,0,0,0,.89.14,3.13,3.13,0,0,0,.53,0,6.74,6.74,0,0,0,.88-.15,6.58,6.58,0,0,0,.83-.34,1.12,1.12,0,0,0,.42-.39,1.14,1.14,0,0,0,.27-.51,1.08,1.08,0,0,0,0-.59,1.12,1.12,0,0,0-.18-.56,1.5,1.5,0,0,0-.89-.69l-.4,0a1.47,1.47,0,0,0-.76.2Z" transform="translate(-3.38 -2.98)"/><path class="cls-2" d="M90.11,105.69a27.57,27.57,0,0,0,8.59-1.51,1.54,1.54,0,0,0,1-1.85,1.51,1.51,0,0,0-1.84-1,25.93,25.93,0,0,1-4,1c-.34.06-.67.12-1,.16l-.21,0-.54.06c-.7.06-1.39.1-2.09.11a1.5,1.5,0,0,0,0,3Z" transform="translate(-3.38 -2.98)"/><path class="cls-2" d="M92,104.92l4.05-.65a1.52,1.52,0,0,0,.9-.69,1.61,1.61,0,0,0,.15-1.16,1.5,1.5,0,0,0-.69-.89l-.36-.15a1.55,1.55,0,0,0-.8,0l-4,.64a1.5,1.5,0,0,0-1,1.85,1.55,1.55,0,0,0,.69.9l.36.15a1.51,1.51,0,0,0,.79,0Z" transform="translate(-3.38 -2.98)"/><path class="cls-2" d="M92.48,105.82a38.26,38.26,0,0,0,10.85-1.45,1.5,1.5,0,0,0-.8-2.89,35.2,35.2,0,0,1-10,1.34,1.5,1.5,0,0,0,0,3Z" transform="translate(-3.38 -2.98)"/><path class="cls-2" d="M99.83,104.89l7.26-2.46a1.53,1.53,0,0,0,1-1.85,1.51,1.51,0,0,0-1.84-1L99,102a1.53,1.53,0,0,0-1,1.85,1.52,1.52,0,0,0,1.84,1Z" transform="translate(-3.38 -2.98)"/><path class="cls-2" d="M92.67,105.82a20.61,20.61,0,0,0,7.2-.82,1.5,1.5,0,0,0-.79-2.89c-.53.16-1.07.29-1.61.41l-.88.16-.38,0c.37,0-.09,0-.17,0a20,20,0,0,1-3.37.07,1.5,1.5,0,0,0,0,3Z" transform="translate(-3.38 -2.98)"/><path class="cls-2" d="M93.76,105.55a8.36,8.36,0,0,0,2.59.15,11.24,11.24,0,0,0,1.43-.25,9.54,9.54,0,0,0,1.38-.52,1.46,1.46,0,0,0,.69-.9,1.5,1.5,0,0,0-1-1.84l-.4,0a1.44,1.44,0,0,0-.76.2l-.14.06.36-.15a7.5,7.5,0,0,1-1.8.49l.4-.06a7.32,7.32,0,0,1-1.87,0l.4.06-.45-.08a1.59,1.59,0,0,0-1.15.15,1.5,1.5,0,0,0,.36,2.74Z" transform="translate(-3.38 -2.98)"/><path class="cls-2" d="M93.77,102.71l-.77.11a1.49,1.49,0,0,0-1.07,1.65,1.52,1.52,0,0,0,1.47,1.3,14.42,14.42,0,0,0,6.07-.84,1.51,1.51,0,0,0-.8-2.9,32.36,32.36,0,0,1-6.2.7,1.51,1.51,0,0,0-.4,3A17.23,17.23,0,0,0,105.91,102a1.48,1.48,0,0,0,.12-2,1.51,1.51,0,0,0-1.93-.38l-2.81,1.4a1.51,1.51,0,0,0,.36,2.74,3.35,3.35,0,0,0,3.23-.84,1.5,1.5,0,0,0-1.82-2.35l-1.17.74a1.52,1.52,0,0,0,.76,2.8,3,3,0,0,0,2.17-1,1.54,1.54,0,0,0,0-2.12,1.5,1.5,0,0,0-2.12,0c-.29.31-.11.08,0,.08l.75,2.79,1.18-.74-1.82-2.36c-.13.12-.16.11-.31.07l.36,2.74,2.8-1.4-1.82-2.36a13.93,13.93,0,0,1-10.92,2.94l-.4,3a37.54,37.54,0,0,0,7-.8l-.8-2.9a12.13,12.13,0,0,1-5.27.74l.4,2.94.76-.11a1.5,1.5,0,0,0,1-1.84,1.53,1.53,0,0,0-1.84-1.05Z" transform="translate(-3.38 -2.98)"/><path class="cls-2" d="M103.82,103.67l2.1-1a1.47,1.47,0,0,0,.54-.54,1.55,1.55,0,0,0,.21-.76,1.64,1.64,0,0,0-.46-1.11,1.58,1.58,0,0,0-.18-.15,1,1,0,0,0-.36-.21l-.22-.09a1.75,1.75,0,0,0-.82,0,1.63,1.63,0,0,0-.73.42,1.59,1.59,0,0,0-.44,1.07,1,1,0,0,0,.13.57,1.11,1.11,0,0,0,.31.49,1.54,1.54,0,0,0,1.06.44,1.56,1.56,0,0,0,1.06-.44v0l-.3.24,0,0-.36.16h0l-.4,0h0l-.4,0h0l-.36-.15,0,0-.31-.23,0,0-.23-.31v0l-.15-.36v0l-.06-.4v0l.74-1.29-2.1,1a1,1,0,0,0-.42.38,1.26,1.26,0,0,0-.27.51,1.22,1.22,0,0,0,0,.6,1.12,1.12,0,0,0,.18.56,1.52,1.52,0,0,0,.9.69l.4.05a1.5,1.5,0,0,0,.75-.2Z" transform="translate(-3.38 -2.98)"/><path class="cls-4" d="M85.36,104.58c3.14-.08,3.2,0,3.61,0l.65,0-.66.81-.86-.14V104l.46.41v.56" transform="translate(-3.38 -2.98)"/><path class="cls-2" d="M90.7,99.62a1.5,1.5,0,0,0,0-3,1.5,1.5,0,0,0,0,3Z" transform="translate(-3.38 -2.98)"/><path class="cls-2" d="M92.88,98.93A7.66,7.66,0,0,0,96,98.6a1.5,1.5,0,0,0-.39-2.95H92.76v3l2.87-.2A1.56,1.56,0,0,0,96.69,98a1.5,1.5,0,0,0-1.06-2.56,21.73,21.73,0,0,0-4.34.25,1.5,1.5,0,0,0-1,1.84,1.46,1.46,0,0,0,.69.9l.35.15a1.55,1.55,0,0,0,.8,0l.38,0-.39,0a20,20,0,0,1,3.55-.14v-3l-2.87.2a1.56,1.56,0,0,0-1.06.44,1.5,1.5,0,0,0,1.06,2.56h2.85l-.4-2.94a7.25,7.25,0,0,1-1.14.26l.4-.06a6.51,6.51,0,0,1-1.59,0,1.46,1.46,0,0,0-1.06.44,1.5,1.5,0,0,0,0,2.12l.3.23a1.48,1.48,0,0,0,.76.21Z" transform="translate(-3.38 -2.98)"/><path class="cls-2" d="M93.81,98.59l5-1.68A1.5,1.5,0,1,0,98,94L93,95.7a1.5,1.5,0,1,0,.8,2.89Z" transform="translate(-3.38 -2.98)"/><path class="cls-2" d="M90.62,98.94a24.12,24.12,0,0,0,4-1.13,1.59,1.59,0,0,0,.9-.69A1.5,1.5,0,0,0,95,95.07a1.46,1.46,0,0,0-1.15-.15,25.53,25.53,0,0,1-4,1.13,1.5,1.5,0,0,0-.89.69,1.49,1.49,0,0,0,.53,2.05,1.67,1.67,0,0,0,1.16.15Z" transform="translate(-3.38 -2.98)"/><path class="cls-2" d="M86.25,99.91a22.44,22.44,0,0,0,5.55-.33,1.47,1.47,0,0,0,.89-.69,1.49,1.49,0,0,0,.15-1.15,1.53,1.53,0,0,0-1.84-1c-.33.06-.65.11-1,.15l.4,0a20.76,20.76,0,0,1-4.17.12,1.51,1.51,0,0,0-1.5,1.5,1.54,1.54,0,0,0,1.5,1.5Z" transform="translate(-3.38 -2.98)"/><path class="cls-2" d="M87.44,99.74l3.16-.5a1.5,1.5,0,0,0,1.05-1.85A1.5,1.5,0,0,0,91,96.5l-.36-.16a1.55,1.55,0,0,0-.8,0l-3.16.5a1.52,1.52,0,0,0-.9.69,1.62,1.62,0,0,0-.15,1.16,1.59,1.59,0,0,0,.69.9l.36.15a1.55,1.55,0,0,0,.8,0Z" transform="translate(-3.38 -2.98)"/><path class="cls-4" d="M78.54,99.61a30.43,30.43,0,0,0,4-.25c1.21-.13,2.4.08,3.54-.48q-2.66.48-5.33,1a23.56,23.56,0,0,1,4-1.5l-4,.92a18.13,18.13,0,0,1,4-1.11c-1.52.35-3.06.62-4.6.83l.28-.14" transform="translate(-3.38 -2.98)"/><path class="cls-4" d="M77.75,99.31l3.35-.11c-1.28,0-2.57,0-3.85,0a14.76,14.76,0,0,0,2.82,0,14.16,14.16,0,0,0-3.9.14h.29" transform="translate(-3.38 -2.98)"/><path class="cls-4" d="M74.69,98.92a.55.55,0,0,1-.57.27,9.61,9.61,0,0,0,3.25-.2,16.18,16.18,0,0,0-3.68,0" transform="translate(-3.38 -2.98)"/><path class="cls-4" d="M72.7,98.84a31.7,31.7,0,0,1,3.9.13A11.22,11.22,0,0,0,80,98.46a1.79,1.79,0,0,1,1.38.41" transform="translate(-3.38 -2.98)"/><path class="cls-4" d="M82.3,100.06a7.63,7.63,0,0,0,3.46-.48c-1.91.07-3.76-.49-5.63-.23" transform="translate(-3.38 -2.98)"/><path class="cls-4" d="M82.3,98.51c1.29.13,3.21-1.06,4.53-1.36l-.58.48" transform="translate(-3.38 -2.98)"/><path class="cls-4" d="M90.52,105c1.92-.17,3.66.33,5.61-.28" transform="translate(-3.38 -2.98)"/><path class="cls-4" d="M91.6,105.68a11.31,11.31,0,0,0,1.77.35,5.15,5.15,0,0,0,2.37-.8" transform="translate(-3.38 -2.98)"/><path class="cls-4" d="M105.63,83.05a9.39,9.39,0,0,1,5.15-.16" transform="translate(-3.38 -2.98)"/><path class="cls-4" d="M104.72,83.24a4.87,4.87,0,0,1,2.57,0c1.94.25,3.8-.57,5.72-.46,1.62.1,3.21-.1,4.83-.13a19.36,19.36,0,0,0,3.14,0,5.92,5.92,0,0,1,3.91.42" transform="translate(-3.38 -2.98)"/><path class="cls-3" d="M136,107.07c1.11-1.32,2.93-2.14,3.13-3.91a.65.65,0,0,0,0-.39c-.07-.11-.24-.17-.33-.07s.14.07-.06.22a14.16,14.16,0,0,0-3.54,3.82,1.07,1.07,0,0,0,.39-.31" transform="translate(-3.38 -2.98)"/><path class="cls-3" d="M145.35,110.38l-3-3a16.75,16.75,0,0,1-2-2.57,12.28,12.28,0,0,1-1.77-3,10.31,10.31,0,0,0,1.13,3h-.15a1.84,1.84,0,0,0-1.65,1.2c-.29.82-1.43.83-2.21,1.21-1.35.66-1.6,2.43-1.64,3.93,0,.27.08.64.35.62a5.44,5.44,0,0,1,2.75.49,1,1,0,0,1,.55.46.41.41,0,0,1-.26.58c-.43,0-.64.61-.48,1a2,2,0,0,0,.95.88,35.47,35.47,0,0,0,10.27,4.06c1.08.24,1.35,0,2.26.79l2.39,2a3.17,3.17,0,0,0,.88.57,2.42,2.42,0,0,0,1.07.09c2.35-.24,4.35-1.73,6.21-3.17,3.49-2.69,7-5.46,9.41-9.17a4.39,4.39,0,0,0,.88-2.55,5.07,5.07,0,0,0-.87-2.13,37.87,37.87,0,0,1-3.79-8.2c-.77-2.58-1.17-5.36-2.77-7.52a2.12,2.12,0,0,0-.85-.75,2.08,2.08,0,0,0-1.58.14c-1.88.79-3.22,2.45-4.49,4.05a38.85,38.85,0,0,0-3.82,5.47c-2.16,4-2.27,7.9-2.51,12.29-.06,1-.36,3.58-1.92,3.11C147.29,113.88,146.33,111.36,145.35,110.38Z" transform="translate(-3.38 -2.98)"/><path class="cls-4" d="M126.21,115v.4" transform="translate(-3.38 -2.98)"/><path class="cls-4" d="M128.78,115.13h-.1C128.65,115,128.82,115.26,128.78,115.13Z" transform="translate(-3.38 -2.98)"/><path class="cls-4" d="M128,114.05l.11-.3a5.47,5.47,0,0,1,2,2c.12.29.3.67.62.65" transform="translate(-3.38 -2.98)"/><path class="cls-4" d="M126.8,113.85l-.1-.1" transform="translate(-3.38 -2.98)"/><path class="cls-4" d="M114.44,114a.45.45,0,0,0-.21.71C114.35,114.32,114.32,114.46,114.44,114Z" transform="translate(-3.38 -2.98)"/><path class="cls-4" d="M129.08,119.19l.39.1" transform="translate(-3.38 -2.98)"/><path class="cls-4" d="M131,119a2,2,0,0,0,.35-1.35,2.34,2.34,0,0,0-.7,2.14,2.62,2.62,0,0,0,.59-2.43,1.13,1.13,0,0,0-1.14.46,4.1,4.1,0,0,0-.61,1.31.85.85,0,0,0,.12-1,1.24,1.24,0,0,0-.49,1.25,1,1,0,0,0,.7-.3L129,119" transform="translate(-3.38 -2.98)"/><path class="cls-4" d="M113.86,112.91a7.53,7.53,0,0,0-.37,1,.94.94,0,0,1,.74-.67,2,2,0,0,1-.26,1c.07,0,.21.34.27.31" transform="translate(-3.38 -2.98)"/><path class="cls-4" d="M130.12,119.73c-.35.71.69,1.47,1.64.32,1.86-2.26-1.94-1.92-.76-.54a1,1,0,0,0,1.06.31.74.74,0,0,0-.45-1.08,1.57,1.57,0,0,0-.11,1.06c.14.34.66.52.87.22a.64.64,0,0,0,.1-.33A1.41,1.41,0,0,0,131,118.3a.93.93,0,0,0,.66.9,1,1,0,0,0-.2-1.34,3,3,0,0,0-1.34-.61.83.83,0,0,0,1,.09.25.25,0,0,0-.08-.48,1.18,1.18,0,0,0-.92.11c-.07,0-.14.09-.12.17s.16,0,.13,0c.31.38,1.1.53,1.41.9a3.55,3.55,0,0,0-1.28-.73.78.78,0,0,0-.54,0,.85.85,0,0,0-.39.74,5.72,5.72,0,0,0,.53,3.05c.33-.37,0,0,0-.46a1.58,1.58,0,0,0,.89-1.43c-1.74.66.69,2.52,1.47,3.09.31.22.82.38,1,.05" transform="translate(-3.38 -2.98)"/><path class="cls-4" d="M139.09,100.69a6,6,0,0,0,.76,3.07" transform="translate(-3.38 -2.98)"/><path class="cls-4" d="M131.36,119.89c-.34.41-.47,1.74.08,2a.92.92,0,0,0,.52.07c.69,0,1.51-.27,1.73-.93a1.46,1.46,0,0,0,0-.69c-.1-.69-.62-1.43-1.31-1.34a1.13,1.13,0,0,0-.86.76,2.65,2.65,0,0,0-.09,1.19,1.17,1.17,0,0,0,.16.55.84.84,0,0,0,1.32-.13,1.49,1.49,0,0,0-.06-1.5,1,1,0,0,0-.43-.47.48.48,0,0,0-.58.1.67.67,0,0,0-.1.34,7.71,7.71,0,0,0,0,1.27,1.2,1.2,0,0,0,.79-1.22c-.26-1.83-2,.2-1.54,1.55a1.17,1.17,0,0,0,.3.53,1,1,0,0,0,1.54-.53,1.5,1.5,0,0,0-.79-1.63.64.64,0,0,0,.11.52" transform="translate(-3.38 -2.98)"/><path class="cls-4" d="M145,120.18l.3-.3c-.11.17-.22.34-.32.51a2,2,0,0,0,1.88,0" transform="translate(-3.38 -2.98)"/><path class="cls-4" d="M151,120.06c-1.49.32-3.19.9-4.7.63-1.34-.23-2.7-.07-4-.29a42.86,42.86,0,0,1-5.05-1c-2.4-.73-4.55-2-6.93-2.74" transform="translate(-3.38 -2.98)"/><path class="cls-4" d="M152,121.63l1.93,4.4a1.16,1.16,0,0,1,.14.74.93.93,0,0,1-.42.48c-1.74,1.18-4.06.35-6.09-.17-4.74-1.19-10-.49-14.33-2.74a1.83,1.83,0,0,1-.8-.65c-.44-.78.31-1.74.14-2.62" transform="translate(-3.38 -2.98)"/><path class="cls-3" d="M134.23,122.25a.92.92,0,0,0,.46.45" transform="translate(-3.38 -2.98)"/><path class="cls-4" d="M146.23,125.75a1.64,1.64,0,0,0,1.57.42,9.63,9.63,0,0,0,4.48-1.75,2.92,2.92,0,0,0-1.15.4" transform="translate(-3.38 -2.98)"/><path class="cls-4" d="M151,127.84l2.32-2.11c.33-.3.68-.77.42-1.13a.83.83,0,0,0-.55-.27,5.86,5.86,0,0,0-5.57,2c-.21.26-.4.63-.2.9a.76.76,0,0,0,.69.2,4.85,4.85,0,0,0,4-3,6.38,6.38,0,0,0-4.08,1.28c-.41.31-.8.89-.48,1.28a1,1,0,0,0,.87.24,5.64,5.64,0,0,0,3.45-1.65,1.87,1.87,0,0,0,.61-1.11c.06-1-1.09-1.52-2.05-1.58a6.29,6.29,0,0,0-5.79,3.18,1.28,1.28,0,0,0-.19,1c.2.5.87.59,1.41.53a6.78,6.78,0,0,0,3.31-1.3,2.58,2.58,0,0,0,1.25-2.32c-.23-1.28-1.83-1.72-3.12-1.78-3.35-.14-7.1.76-8.9,3.59a2.49,2.49,0,0,0,2.06.34,15.55,15.55,0,0,0,4.57-1.46,2.62,2.62,0,0,0,1-.76,1,1,0,0,0,.06-1.21,17.65,17.65,0,0,0-9,1.74,8,8,0,0,0,5.08.09c.61-.19,1.3-.62,1.22-1.25a11,11,0,0,0-5.5-.61,3.8,3.8,0,0,0-1.65.55,1.73,1.73,0,0,0-.8,1.47,1.66,1.66,0,0,0,1.33-1.67" transform="translate(-3.38 -2.98)"/><path class="cls-4" d="M133.57,119.1a8.4,8.4,0,0,0-.08,4.31,1.63,1.63,0,0,0,.92,1.29,1.16,1.16,0,0,0,.69,0,1.82,1.82,0,0,0-.74-3.54,1,1,0,0,0-.73.37,1.2,1.2,0,0,0,.18,1.36,3.24,3.24,0,0,0,.83.78,1.12,1.12,0,0,0,1.13.17,1,1,0,0,0,.31-1.17,2.71,2.71,0,0,0-1.4-1.37,2.25,2.25,0,0,0-1-.34,1.47,1.47,0,0,0-1.39,1.17,1.76,1.76,0,0,0,.7,1.72,2.22,2.22,0,0,0,1.87.32,2.27,2.27,0,0,0,1.6-1.55,1.81,1.81,0,0,0-.83-2,2.62,2.62,0,0,0-.49-.19,2.69,2.69,0,0,0-1.29-.07,1.39,1.39,0,0,0-1,.78c-.66,1.64,1.14,1.47,2.18,1.6l4.35.5,8.71,1" transform="translate(-3.38 -2.98)"/><path class="cls-3" d="M132.26,118.72c1.16-.6,2.56-.19,3.8.22a32.26,32.26,0,0,0,7.29,1.74,17,17,0,0,1,5,.71c1.58.65,2.91,2.35,2.42,4A4.31,4.31,0,0,1,148,127.8a11.22,11.22,0,0,1-5.37.76,18.6,18.6,0,0,1-4.54-1.38,6,6,0,0,1-2-1.09c-1.12-1.08-1.19-2.83-1.19-4.39a4.6,4.6,0,0,1,.27-1.92,1.58,1.58,0,0,1,1.54-1" transform="translate(-3.38 -2.98)"/><path class="cls-3" d="M150.34,121.39a.53.53,0,0,0-.76.18,1,1,0,0,0,0,.87,1.91,1.91,0,0,0,2.17,1.1,1.89,1.89,0,0,0,1.37-2,1.91,1.91,0,0,0-1.8-1.63,2.57,2.57,0,0,0-1.94,1.07" transform="translate(-3.38 -2.98)"/><path class="cls-3" d="M132.85,117.44a4.4,4.4,0,0,0-1.68,1.39A2.69,2.69,0,0,0,131,121a4.5,4.5,0,0,0,1.17,1.86,2.52,2.52,0,0,0,1.91.93,2,2,0,0,0,1.63-1.82,4,4,0,0,0-.77-2.49,2.71,2.71,0,0,0-.69-.78,3.11,3.11,0,0,0-.89-.4l-1-.36a.82.82,0,0,0-.46-.06c-.32.09-.4.5-.42.82" transform="translate(-3.38 -2.98)"/><path class="cls-4" d="M121.26,138.87v-.5" transform="translate(-3.38 -2.98)"/><path class="cls-3" d="M111.93,133.72c.31-.77.53-1.6.91-2.36a13.56,13.56,0,0,1,1.61-2.66,11.37,11.37,0,0,1,3.57-2.63,22.17,22.17,0,0,1,9.52-2.82,6.51,6.51,0,0,1,3.69.77c.34.21.64.47,1,.69,1.12.74,2.55,1,3.61,1.79a6.84,6.84,0,0,1,1.87,2.94,37.07,37.07,0,0,1,2.56,15.76,13.48,13.48,0,0,1-.82,4.36c-1.42,3.54-5.13,5.72-8.88,6.43a17.67,17.67,0,0,1-3.48.31c-1.09,0-2.18-.13-3.26-.24a20.32,20.32,0,0,1-4.11-.71,14.22,14.22,0,0,1-5.71-3.79,9.24,9.24,0,0,1-2.57-4.49c-.25-1-1.36-2.76-1.06-3.86a15.88,15.88,0,0,0,.26-4.55,11.34,11.34,0,0,1,.73-3.85c.21-.65.37-1.67-.13-2.19a1,1,0,0,0-.31,1.1" transform="translate(-3.38 -2.98)"/><path class="cls-4" d="M111.78,132.75c-1.35.2-2.69-.17-4,0a5.07,5.07,0,0,0-2.21,1.18,20.08,20.08,0,0,0-4.23,3.21l.25-.3" transform="translate(-3.38 -2.98)"/><path class="cls-4" d="M111.08,132h-.5" transform="translate(-3.38 -2.98)"/><path class="cls-4" d="M108.31,132.24v-.1" transform="translate(-3.38 -2.98)"/><path class="cls-4" d="M111,132.34l-.1-.1" transform="translate(-3.38 -2.98)"/><path class="cls-4" d="M111.77,132l.1.2C111.74,132.21,111.9,132.08,111.77,132Z" transform="translate(-3.38 -2.98)"/><path class="cls-4" d="M110.29,132.54v-.4" transform="translate(-3.38 -2.98)"/><path class="cls-4" d="M109.39,132a1,1,0,0,1-.89-.38" transform="translate(-3.38 -2.98)"/><path class="cls-3" d="M110.77,132.29l-6.23-1.67a5.85,5.85,0,0,0-1.76-.29,6.81,6.81,0,0,0-1.41.3l-2.36.71a5.87,5.87,0,0,0-2.18,1c-1.1.94-1.34,2.52-1.86,3.87-1,2.51-3.08,4.79-2.7,7.44a1.58,1.58,0,0,0,.37.89,1.56,1.56,0,0,0,.9.36,6.73,6.73,0,0,0,4-1,13.58,13.58,0,0,0,5.87-6.58,28,28,0,0,0,.91-2.72l.93-3.18.24.71" transform="translate(-3.38 -2.98)"/><path class="cls-4" d="M107.51,132.74l-.21-.59c-.22-.62-3.08,2.18-3.16,2.25" transform="translate(-3.38 -2.98)"/><path class="cls-4" d="M103.4,136.15a8.19,8.19,0,0,1,2.16-1.9A5.19,5.19,0,0,1,103.4,136.15Z" transform="translate(-3.38 -2.98)"/><path class="cls-4" d="M97.82,132.83c.47-.45.56-1.24,1.11-1.6a2,2,0,0,1,.68-.24l2.25-.53a9.79,9.79,0,0,1,2.3-.18,17,17,0,0,1,4.85.83A5.79,5.79,0,0,0,103.5,134" transform="translate(-3.38 -2.98)"/><path class="cls-3" d="M94.15,144.22c1.07,1.21.54,2.07.14,3.57-.35,1.35-.75,2.69-1.23,4a22.93,22.93,0,0,1-4,7.19,29.53,29.53,0,0,1-2.73,2.75,36.55,36.55,0,0,1-9.58,6.82,15.37,15.37,0,0,1-11.48.79l6.07-2a1.2,1.2,0,0,0,.41-.2c.28-.27.19-.73.14-1.11s.07-.91.46-.94l-3.19-.44a3.57,3.57,0,0,1-1.44-.41c-1.13-.72-1.13-2.4-2-3.41.1.95,1.28,1.32,2.24,1.37a15.52,15.52,0,0,0,8.43-2,7,7,0,0,1,2.26-1,7.07,7.07,0,0,0,1.67-.21,2.09,2.09,0,0,0,.73-3,2.66,2.66,0,0,0-2.14-1.21,9.32,9.32,0,0,0,4.14-1,6.92,6.92,0,0,0,4-2.94,37.34,37.34,0,0,0,4.84-8.18.39.39,0,0,0-.08-.4c.48.47.8,1.12,1.27,1.58s1.12,1,1.78.81C94.85,144.81,94.15,144.12,94.15,144.22Z" transform="translate(-3.38 -2.98)"/><path class="cls-4" d="M100.89,146.38h.2" transform="translate(-3.38 -2.98)"/><path class="cls-4" d="M81.6,157.64a2.15,2.15,0,0,0-1.32,1.49C80.74,158.6,81.14,158.17,81.6,157.64Z" transform="translate(-3.38 -2.98)"/><path class="cls-4" d="M85.17,166.49c-.06.09-.13.17,0,.19.33.09,2.72-2.15,3.28-2.45,1.58-.83,2.08-1.82,2.84-3.34a65.1,65.1,0,0,1,3.2-5.71" transform="translate(-3.38 -2.98)"/><path class="cls-4" d="M87.94,163.8q1.22-2.12,2.63-4.09" transform="translate(-3.38 -2.98)"/><path class="cls-4" d="M90.25,162.23l1.59-4.49" transform="translate(-3.38 -2.98)"/><path class="cls-4" d="M89.54,162.7a8.54,8.54,0,0,1,3.6-6.08" transform="translate(-3.38 -2.98)"/><path class="cls-4" d="M89.27,163.84c2-2.68,2.29-6.27,4.13-9" transform="translate(-3.38 -2.98)"/><path class="cls-4" d="M92.21,155.39a16.07,16.07,0,0,1,1.62-4.28" transform="translate(-3.38 -2.98)"/><path class="cls-3" d="M90.46,163.1a7.07,7.07,0,0,1,.36-2.45c1.33-4.64,4.07-8.88,4.61-13.68a1.45,1.45,0,0,1,.41-1.06,1.54,1.54,0,0,1,.5-.2l3.71-.92c-.38,2.56-2.45,4.61-2.93,7.16-.13.72-.13,1.47-.33,2.17a7.6,7.6,0,0,1-.87,1.79c-1.26,2.07-2.61,4.09-4.06,6" transform="translate(-3.38 -2.98)"/><path class="cls-4" d="M101.38,144.21v.2" transform="translate(-3.38 -2.98)"/><path class="cls-3" d="M99.91,148.7c.48-1.26.83-2.61,1.18-3.46a17.1,17.1,0,0,0,1.53-5.42A8.31,8.31,0,0,1,99.5,143c-1.71,1-3.77,1.35-5.25,2.65a2.75,2.75,0,0,1,2.11,1.58c.6,1.24-.64,5.66,1.46,4.57.92-.48,2.47-2.53,1.84-3.57a3.59,3.59,0,0,1,1.23,2.26,11.26,11.26,0,0,1,0,2.66c0-.57-.61-1-.71-1.54a2.31,2.31,0,0,1,.53-1.46c.27-.46.45-1.1.07-1.47a2.09,2.09,0,0,1-2.52-1.81.57.57,0,0,1,.16-.49,1.7,1.7,0,0,1,.4-.13,1.06,1.06,0,0,0,.45-.44c.82-1.31.92-3,1.7-4.3.23-.4.66-.81,1.1-.64a1,1,0,0,1,.5.6c.81,1.91.53,4.08.23,6.13l-.37,2.58a4.64,4.64,0,0,1-.22,1c-.21.51-.62.94-.78,1.47a1.26,1.26,0,0,1-.18.48c-.11.13-.35.18-.45,0" transform="translate(-3.38 -2.98)"/><path class="cls-4" d="M100.69,143.62a2.45,2.45,0,0,1,.09.94.83.83,0,0,0,.43.79c.36.12.72-.21.92-.54a4.61,4.61,0,0,0,.7-2.22,1.26,1.26,0,0,0-.4-1.14,1.22,1.22,0,0,0-1.1,0,3.88,3.88,0,0,0-2.39,2.74,1.11,1.11,0,0,0,0,.82.84.84,0,0,0,.78.36,1.45,1.45,0,0,0,.8-.4,2.33,2.33,0,0,0,.67-2.28,2.85,2.85,0,0,0-1.92,1.23c-.47.55-.93,1.32-.56,1.94a1.76,1.76,0,0,0,1.72-1" transform="translate(-3.38 -2.98)"/><path class="cls-4" d="M98.14,146.41a1.22,1.22,0,0,0,0,1.72,1.18,1.18,0,0,0,1.12.49c.42-.1.7-.68.4-1A5.68,5.68,0,0,0,97.23,149a2.92,2.92,0,0,0-.84,2.56,4.18,4.18,0,0,0,.88-.36c.11.89-.87,1.66-.72,2.54a2.31,2.31,0,0,0,.89-.66c-.42.14-.89.34-1,.76a8.32,8.32,0,0,0,1.69-1.61" transform="translate(-3.38 -2.98)"/><path class="cls-3" d="M113.62,153.86c-.19-.9.69-1.73,1.6-1.86a5.41,5.41,0,0,1,2.65.57,52.86,52.86,0,0,0,12.18,3.15.83.83,0,0,1-.37,1,3.67,3.67,0,0,1-1.07.37c-2.68.72-4.29,3.35-6,5.52a24.68,24.68,0,0,0-2.51,3.36c-.94,1.7-1.44,3.87-3.18,4.73-.54,0-.79-.68-.85-1.23a16.69,16.69,0,0,1,.52-5.16l.65-3.12c.17-.82.13-2-.69-2.14a1.53,1.53,0,0,0-1.1.38,18.6,18.6,0,0,0-3.34,3.41l-1.52,1.84a31.26,31.26,0,0,0-2.47,3.28,6.58,6.58,0,0,1-2.28,2.68c-1.26.62-2.76.18-4.09-.27-.38-.13-.81-.3-.95-.68-.28-.77.83-1.28,1.22-2s-.11-1.79-.13-2.71c0-1.23.9-2.25,1.41-3.37s.65-2.47,1.46-3.42c1.11-1.32,3.06-1.42,4.67-2a7.2,7.2,0,0,0,3-2.15c.48-.57,2-1.76,1.69-2.56-.71.77-.41,1.55-.81,2.35-.48,1-2,1.47-2.92,2a11.09,11.09,0,0,0-2.45,2c-.52.56-1.11,1.23-1.86,1.16l1.1-1.05" transform="translate(-3.38 -2.98)"/><path class="cls-4" d="M143.62,142.33h.19" transform="translate(-3.38 -2.98)"/><path class="cls-4" d="M129.74,121a.2.2,0,0,0-.27-.16c1.36.86,2.54,2.27,1.38,3.81a.34.34,0,0,1-.08-.38" transform="translate(-3.38 -2.98)"/><path class="cls-3" d="M140,147.34c3.67-.78,7.49-.31,11.25-.24s7.77-.36,10.71-2.61,4.34-6.24,5.08-9.94c1.62-8.23,1.32-16.68,1.33-25.05a40.29,40.29,0,0,1,.74-9.11c1.43-6.22,5.62-12.06,4.81-18.39-.74.92-2.16.91-3.37,1a14.7,14.7,0,0,0-11.41,6.27,22.1,22.1,0,0,0-3,8.46,67.2,67.2,0,0,1-2,8.75c-.82,2.57-1.68,5.14-2.58,7.69-1.11,3.17-2.28,6.32-3.45,9.46l-2.38,6.4c-.42,1.15-.85,2.29-1.21,3.46-.6,1.9-1,3.85-1.45,5.79l-.92,4.17C141.73,145,141.45,146.47,140,147.34Z" transform="translate(-3.38 -2.98)"/><path class="cls-3" d="M147.37,129.38c-1-.76-1.66-1.87-2.68-2.59a9.07,9.07,0,0,0-4.17-1.22,5.92,5.92,0,0,0-2.26,0,7.69,7.69,0,0,0-2.75,1.87,10.66,10.66,0,0,0-1.87,1.74,5.5,5.5,0,0,0-.9,2.32,12.6,12.6,0,0,0,.86,6.8,30,30,0,0,0,3.43,6,2.63,2.63,0,0,0,.64.73,3.29,3.29,0,0,0,.93.37,14.34,14.34,0,0,1,5.12,2.67,2.37,2.37,0,0,0,.65.43,2.49,2.49,0,0,0,.47.12,42.31,42.31,0,0,0,8.26.51c1.68-.07,3.58-.36,4.51-1.76a4.43,4.43,0,0,0,.28-3.64c-.35-1.2-.94-2.34-1.21-3.56s-.23-2.72-.65-4a10.81,10.81,0,0,0-3-4.1l-3.35-3.3a8.82,8.82,0,0,0-1.66-1.38,13.93,13.93,0,0,0-2.61-1,34.11,34.11,0,0,0-3.76-1.42,7.21,7.21,0,0,0-7.23,2.63c-.11.14-.2.36-.08.48s.31-.23.13-.18" transform="translate(-3.38 -2.98)"/><path class="cls-3" d="M150.35,105.56a9.53,9.53,0,0,1,.21-4.21,26.48,26.48,0,0,1,1.81-5.2,28.71,28.71,0,0,1,1.63-3,35.18,35.18,0,0,1,3.11-4.26,34.06,34.06,0,0,1,7.25-6.46,9.5,9.5,0,0,1,3-1.46,10.92,10.92,0,0,1,4.26.1l4.12.64a7,7,0,0,1,3.74,1.36c1.1,1,1.45,2.55,2.12,3.87s1.84,2.65,2,4.2c.08.71,0,1.42,0,2.13.07,2.09,1.4,3.88,2.3,5.76a29.61,29.61,0,0,1,2,7,19.32,19.32,0,0,0-5.52,1.9A4.46,4.46,0,0,1,180,105.4a13.22,13.22,0,0,0-.62-1.87,4.07,4.07,0,0,0-2.67-1.81c-1.06-.29-2.18-.37-3.23-.72s-2.55-1.11-3.6-.42-.89,2.48-.2,3.64,1.72,2.21,1.83,3.55a5.27,5.27,0,0,1-.1,1.31,36.94,36.94,0,0,1-1,4.25,27.43,27.43,0,0,0-1.25,4.85c-.21,1.86,0,4-1.32,5.31-1,1-2.52,1.11-3.91,1.2a4,4,0,0,1-2.1-.26c-1-.51-1.35-1.73-2.15-2.49a13.4,13.4,0,0,0-1.88-1.26,10.08,10.08,0,0,1-2.25-2.4l-3.12-4.12a10.61,10.61,0,0,1-1.45-2.3,11,11,0,0,1-.62-2.72,23.08,23.08,0,0,1-.32-5.44,22.13,22.13,0,0,1,1-4.38A29.1,29.1,0,0,1,155.34,90c1.21-1.55,2.72-2.89,3.54-4.68a2.85,2.85,0,0,1,.5-.86,2.4,2.4,0,0,1,.84-.47l7.61-3A12.81,12.81,0,0,0,156,86.24a25.13,25.13,0,0,0-3,7,67.39,67.39,0,0,0-2.28,8.35c-.13.72-.24,1.45-.32,2.18" transform="translate(-3.38 -2.98)"/><path class="cls-4" d="M159.68,85.21a2.37,2.37,0,0,1,.28-.27c-.39.1-.42.37-.57.75a15.29,15.29,0,0,0,1.24-1.17,7.85,7.85,0,0,0-.95,1.38c.23-.37.46-.76.72-1.11C160.33,85,159.88,85.17,159.68,85.21Z" transform="translate(-3.38 -2.98)"/><path class="cls-3" d="M170.32,100.49l.2.1a5.74,5.74,0,0,0,.9,2.65l2.87,6.3a43.26,43.26,0,0,0,4.37,8.06c1.9,2.55,4.49,5,4.6,8.18a12.33,12.33,0,0,0,.06,2c.21,1.1,1,2.14.76,3.23a3.37,3.37,0,0,1-1.47,1.72l-7.35,5.45-2.78,2.06a24.08,24.08,0,0,1-3.26,2.14,13,13,0,0,0-3.46,1.92,7.27,7.27,0,0,1-.75.72,3.91,3.91,0,0,1-1.09.47l-6.76,2.09,2.74-4.19a10.53,10.53,0,0,0,1.18-2.16,10.91,10.91,0,0,0,.44-2.29,99.59,99.59,0,0,1,3.21-15.57l.51,1.16" transform="translate(-3.38 -2.98)"/><path class="cls-4" d="M169.8,103.05c-.2-.64-.38-1.32.22-1.77a2,2,0,0,1,.09,1.09" transform="translate(-3.38 -2.98)"/><path class="cls-3" d="M173.41,107.41c2.64,2.63,5.34,5.36,6.76,8.81a22.64,22.64,0,0,1,1.44,7.25,12.54,12.54,0,0,0,.55,3.56,10.82,10.82,0,0,0,1.32,2.34,2.65,2.65,0,0,0,1.47,1.31c.64.13,1.35-.21,1.94.08a1.89,1.89,0,0,1,.68.72l1.32,2a1.74,1.74,0,0,1,.39.89c0,.63-.6,1.07-1.15,1.38-1.48.8-3,1.49-4.55,2.18l-4.83,2.17c-1.79.81-3.58,1.61-5.39,2.36s-3.87,1.53-5.84,2.2" transform="translate(-3.38 -2.98)"/><path class="cls-3" d="M173,108.21l.34,4.62a28.49,28.49,0,0,1,.08,5.14c-.16,1.53-.55,3-.69,4.56-.18,2,.09,4-.06,6.06a29.16,29.16,0,0,1-.57,3.61,17,17,0,0,1-.62,2.43c-.28.77-.68,1.5-1,2.26a8.59,8.59,0,0,0-.64,3.47,18.44,18.44,0,0,1,.09,2.1,2.38,2.38,0,0,1-.92,1.83,3.31,3.31,0,0,1-2.39.18" transform="translate(-3.38 -2.98)"/><path class="cls-4" d="M180.42,136.39l-.1-.2" transform="translate(-3.38 -2.98)"/><path class="cls-4" d="M181,139.66h-.2" transform="translate(-3.38 -2.98)"/><path class="cls-4" d="M187,153.71c-.08,0-.11.13,0,.16s.16-.05.22-.11a17.19,17.19,0,0,0,2.42-3.35c-.8,1.33-2.24,2.34-2.53,3.87a23.62,23.62,0,0,0,1.95-3.28,8.87,8.87,0,0,1-2.26,2.31c.79-.82,1.58-1.65,2.35-2.49a3.33,3.33,0,0,0,1.05-1.81,8.7,8.7,0,0,0-2.7,2.8,3.76,3.76,0,0,0,2.22-3.31,4.93,4.93,0,0,0-1.67.13,24.1,24.1,0,0,0,2.46-2.49l-3.34.54c-.09,0-.21,0-.21.15" transform="translate(-3.38 -2.98)"/><path class="cls-3" d="M186.21,156a2.83,2.83,0,0,1-.64-2.58,22.48,22.48,0,0,1,.84-2.64,8.3,8.3,0,0,0,.34-2.38.88.88,0,0,0-.14-.58.94.94,0,0,0-.47-.25,69.52,69.52,0,0,0-15.9-3c-.38,0-.9-.23-.81-.6a.63.63,0,0,1,.21-.28c1.06-.94,2.58-1.1,4-1.4a30.81,30.81,0,0,0,4.64-1.55c1.14-.44,2.27-.88,3.39-1.37a5.72,5.72,0,0,1,2.15-.63c1.61,0,2.85,1.35,4.12,2.34,2.62,2.05,6.12,2.79,8.56,5a17.8,17.8,0,0,1,3.73,6,1.09,1.09,0,0,1-.24,1.58,14.56,14.56,0,0,1-6.38,3.63c-.63-.3-.54-1.26-.12-1.81s1.06-.95,1.35-1.58c.57-1.27-.53-2.65-1.65-3.46a3.06,3.06,0,0,0-1.43-.68c-1.35-.17-2.37,1.18-2.94,2.42s-.81,2.57-2.1,3a1.85,1.85,0,0,1,.19,1" transform="translate(-3.38 -2.98)"/><path class="cls-4" d="M189.37,152.44c.41-.58.83-1.16,1.33-1.77.32-.4,0-1,.51-1.1a21.07,21.07,0,0,0-1.54,2.31,10.83,10.83,0,0,0-1.58,2.4c1.11-1.6,2.64-2.73,3.5-4.53" transform="translate(-3.38 -2.98)"/><path class="cls-3" d="M187,140.35v-.1a49.06,49.06,0,0,1,8,3.89,17.48,17.48,0,0,1,3.72,2.9,7.4,7.4,0,0,1,2,4.19,2.08,2.08,0,0,1-.12,1.05,2.55,2.55,0,0,1-.65.74l-10.32,8.87a4.32,4.32,0,0,0-.89.92c-.26.39-.39.85-.66,1.23a6.68,6.68,0,0,1-1.48,1.27,2.08,2.08,0,0,0-1,1.62c1.13-.35,1.69-1.57,2.33-2.56,1.56-2.41,4.21-4,5.4-6.65-.8,2.3-3.07,3.71-4.65,5.58a10.61,10.61,0,0,0-1.58,2.49c.47-1.73,2.06-2.87,3.35-4.12a14.91,14.91,0,0,0,2.94-4,17.23,17.23,0,0,1-3.67,4.77c-1.65,1.49-3.63,2.72-4.67,4.67l1.39-.44a13.13,13.13,0,0,0-5.11,3.05c-1.25,1.19-2.25,2.63-3.59,3.71a2,2,0,0,1-1.46.58c-.18-.18,0-.53.29-.49a.41.41,0,0,1,.26.59l1.3-1h-1.58c0-2.44,1-4.75,1.94-7a3.1,3.1,0,0,1,.69-1.11,3,3,0,0,1,1.19-.54l1.95-.58a1,1,0,0,0,.6-.33,1.4,1.4,0,0,0,.17-.58,3.57,3.57,0,0,1,2-2.41,31,31,0,0,1,3-1.18,22.33,22.33,0,0,0,4.48-2.72,6.37,6.37,0,0,0,1.74-1.65c1.11-1.77.24-4.08-.72-5.94s-2.16-4-4.06-5.05a5.31,5.31,0,0,1-2-1.36c-.64-.94-.32-2.26-.82-3.28l.73,3" transform="translate(-3.38 -2.98)"/><path class="cls-4" d="M188.42,131.85l.2-.3" transform="translate(-3.38 -2.98)"/><path class="cls-3" d="M184.41,130.28q8-1.8,16-3.43c.37-.07.85-.1,1,.23a.86.86,0,0,1,.06.48,23.39,23.39,0,0,1-3.23,10.89c-.52.88-1.1,1.73-1.68,2.57a4.75,4.75,0,0,1-2.47,2.22,2.57,2.57,0,0,0,2.47-2.07,6.25,6.25,0,0,0-1.24,1.93l2.47-3.74a3.49,3.49,0,0,1-4.18,2.51c-.33-.09-.78-.18-.93.13a8.78,8.78,0,0,1,3,.51l-2.47-.51a15,15,0,0,0,2.21-5.66,7.52,7.52,0,0,1-2,5.12c-.38-.69-.76-1.54-.36-2.22.13-.21.32-.38.46-.58a3.16,3.16,0,0,0,.36-1l1.34-6.23q-4.78,3.07-9.79,5.76l-2.26-6a.79.79,0,0,1-.07-.45c.07-.24.35-.35.59-.41l1.34-.4a2.61,2.61,0,0,1,1.35-.13.87.87,0,0,1,.68,1" transform="translate(-3.38 -2.98)"/><path class="cls-4" d="M177.12,81.07c-.11.11-.33,0-.35-.17-.2-1.11,2.49-2.12,3.25-2.29-.17.92-1.31,3.72-.82,4.57A2.45,2.45,0,0,0,177,82.09a.47.47,0,0,1,.6-.17c.34.19.59-.33.72-.69a4.49,4.49,0,0,1,.39-1.08,3.59,3.59,0,0,0-.34,2.09,3.3,3.3,0,0,0,.48-2.27c.06.39-.42.86-.28,1.4a4.12,4.12,0,0,0,.86-1.38A5.19,5.19,0,0,0,177,81.23a.89.89,0,0,0,.6.07" transform="translate(-3.38 -2.98)"/><path class="cls-4" d="M179.13,83.49a4.06,4.06,0,0,0,.17-1.66A18.86,18.86,0,0,0,180,85l.31-2.57a.36.36,0,0,1,.38.19" transform="translate(-3.38 -2.98)"/><path class="cls-4" d="M181.69,87.14c.14-.78-.21-1.59-.07-2.38a4,4,0,0,1,.45-1.14l.9-1.74a1.61,1.61,0,0,1,.8-.88" transform="translate(-3.38 -2.98)"/><path class="cls-4" d="M179.21,79.63c.19,1.18.42,2.37.53,3.55" transform="translate(-3.38 -2.98)"/><path class="cls-4" d="M180.84,84.23a.47.47,0,0,1-.17-.21c-.23-.5.6-1.66.87-2a1.65,1.65,0,0,1,1.2-.82.61.61,0,0,1,.48.19c.24.27.09.7-.08,1a6.25,6.25,0,0,1-.92,1.45c-.27.28-.73.66-1.11.62A5.2,5.2,0,0,1,182.24,82c-.44.67-.4,1.92-1.27,2.22a2.11,2.11,0,0,1,1.32-2" transform="translate(-3.38 -2.98)"/><path class="cls-3" d="M115.8,169.22l-3.11,4.57a6.45,6.45,0,0,1-.86,1.09c-.35.33-.78.58-1.16.89a10.67,10.67,0,0,0-1.45,1.48c-1.24,1.45-1.87,3.37-3.81,3.76a6.36,6.36,0,0,0-4.86,6.69,2.21,2.21,0,0,1-1.27-.12,1.19,1.19,0,0,0,1.17.17c.36-.2.4-.86,0-1L99.94,188c3.62-.39,7.31-.8,10.59-2.36a5.61,5.61,0,0,0,1.56-1,6.63,6.63,0,0,0,1-1.49,88.24,88.24,0,0,0,4.46-9.43,6,6,0,0,0,.62-3.49,9.77,9.77,0,0,0-3.05-.19l.1.65" transform="translate(-3.38 -2.98)"/><path class="cls-3" d="M100.76,169.84l-.77,1.6c-1.46,3.05-2.65,7-4.87,9.57a21.82,21.82,0,0,1-2.57,2.21c-1.42,1.19-1.93,2.53-2.89,4a2.43,2.43,0,0,1-1.73,1.22c-.39,0-.77-.08-1.16-.07-1.24,0-2.11,1.19-2.79,2.24-1.28,2-2.61,4.15-2.5,6.51a5.91,5.91,0,0,0,3.36-.36l5.67-1.75c2-.62,4.35-1.49,5.07-3.5a8.31,8.31,0,0,1,.47-1.38c.3-.53.85-.9,1.08-1.47s.06-1.43.42-2a7.29,7.29,0,0,1,.65-.72,4.08,4.08,0,0,0,.56-1.1,8,8,0,0,1,1.48-2.95,16,16,0,0,0,2.09-2.6,25.5,25.5,0,0,0,3.11-7,1.77,1.77,0,0,0-.07-1.48c-.36-.49-1.07-.48-1.67-.43l-1.88.16a4,4,0,0,0-1.42.29,1.36,1.36,0,0,0-.82,1.12" transform="translate(-3.38 -2.98)"/><path class="cls-5" d="M154,16.36a109.08,109.08,0,0,1,23.17,9.1c1.7.91,3.22-1.68,1.51-2.59a112.62,112.62,0,0,0-23.89-9.4,1.5,1.5,0,0,0-.79,2.89Z" transform="translate(-3.38 -2.98)"/><path class="cls-5" d="M179,23.45l-13.11-11a1.54,1.54,0,0,0-2.12,0,1.52,1.52,0,0,0,0,2.12l13.11,11.05a1.54,1.54,0,0,0,2.12,0,1.52,1.52,0,0,0,0-2.12Z" transform="translate(-3.38 -2.98)"/><path class="cls-5" d="M143,18.62a192.88,192.88,0,0,1,29.31,6.1,1.5,1.5,0,0,0,.79-2.89A198,198,0,0,0,143,15.62c-1.91-.24-1.89,2.76,0,3Z" transform="translate(-3.38 -2.98)"/><path class="cls-5" d="M175.11,22.53,140.69,7.73c-1.75-.76-3.28,1.83-1.51,2.59l34.42,14.8c1.75.75,3.28-1.83,1.51-2.59Z" transform="translate(-3.38 -2.98)"/><path class="cls-5" d="M119.65,9.06l22.94,3.86c1.89.32,2.7-2.57.8-2.89L120.44,6.17c-1.88-.32-2.7,2.57-.79,2.89Z" transform="translate(-3.38 -2.98)"/><g id="Capa_2" data-name="Capa 2"><path class="cls-6" d="M208.5,252.5" transform="translate(-3.38 -2.98)"/><path class="cls-1" d="M21.5-11.5" transform="translate(-3.38 -2.98)"/><path class="cls-1" d="M252.37,113.75v2.37A125.85,125.85,0,0,1,195.5,232.5,124.5,124.5,0,0,1,128,252.37c-46.49-.19-77-26.94-83.5-32.87C1.73,180.27,3.64,126.6,4,119.68c.48-9.19,2.57-42.53,27.74-72.33C70.87,1,136.5,3.5,136.5,3.5c10.54,1.34,59.81,8.72,92,52A129.39,129.39,0,0,1,252.37,113.75Z" transform="translate(-3.38 -2.98)"/><path class="cls-1" d="M236.62,115.59v2.07a111.72,111.72,0,0,1-7.74,51.13A110.25,110.25,0,0,1,187,219.6,108.23,108.23,0,0,1,128.2,237c-40.53-.17-67.16-23.6-72.79-28.79-37.29-34.36-35.62-81.37-35.31-87.43.43-8,2.24-37.25,24.18-63.36C78.39,16.83,135.61,19,135.61,19c9.19,1.17,52.13,7.64,80.2,45.55A113.65,113.65,0,0,1,236.62,115.59Z" transform="translate(-3.38 -2.98)"/><path class="cls-1" d="M110.5,105.5" transform="translate(-3.38 -2.98)"/><path class="cls-7" d="M82.3,197.94h0s10.56-3,12.84-5a1.66,1.66,0,0,0,.36-.44c1-2,12.81-27.58,20.8-32.87l.2-.13" transform="translate(-3.38 -2.98)"/><path class="cls-7" d="M116.3,159.63s.2,14.87-6.8,16.87l-2,4s-5.2-1.59-8.1,8.2l5.1-1.2s8.18-.91,8.94-4.46a2.35,2.35,0,0,0,.06-.54l2.8-4.87s5.2-19.13,13.2-20.13c0,0,9.54-2,10.92-9,0-.05-.08-.38.09-.54.38-.37,1.59.33,2,.54,1.2.64,2.8.76,6,1,4.82.36,9.28-1.1,12-2a45,45,0,0,0,7-3,36.65,36.65,0,0,1,19,4,11.47,11.47,0,0,0-1.12,3.36c-.38,1.83-.38,4,1.12,5.19,0,0-1,1.45,6-6.55,0,0,.92-.92,1.88,2.53l.12.47" transform="translate(-3.38 -2.98)"/><path class="cls-7" d="M194.42,153.18s-3.92,6.32-10.92,7.32l-1,3s-3,0-4,1c0,0-2.57,6.85-2.16,9.46a1.91,1.91,0,0,0,.16.54c1,2,5-6,10-7,0,0,6.84-7.52,7.92-9.26,0,0,8.08-3.74,7.08-7.74l-1-2a38.16,38.16,0,0,0-4.88-4.31c-1-.77-2.15-1.57-3.43-2.37a43.6,43.6,0,0,0-7.14-3.6s7.8-3.89,10-6.11c.23-.22-2.52,9.39-2.52,9.39" transform="translate(-3.38 -2.98)"/><path class="cls-7" d="M195.62,144.19s9-13.69,6-18.19l-17.09,3.5s-2-13-6-17c-3.67-3.67-6.5-9-6.94-11.43a3.25,3.25,0,0,1-.06-.57v-.61a18.93,18.93,0,0,0,7,3.61s2,6,4,5l3-1h2a1.31,1.31,0,0,0,1.44-1.77L184.5,94.5s-1-1,0-5c0,0-3-4-2-4,0,0-1-1,1-4l1-1s-2-1-4,2c0,0,0-5,1-5h-.4s-4-.2-4.8,3.4c0,0-11.8-2.4-16.8,2.6,0,0-10,4-10,30,0,0-17-11-5-19,0,0,7-6,8-7,0,0,2.52-2-5.55-6.4a52.25,52.25,0,0,0-11.45-3.6c-3.46-.66-5.41-.67-8-1a49.61,49.61,0,0,1-16-5" transform="translate(-3.38 -2.98)"/><path class="cls-7" d="M111.5,71.9s1,3.6,7,5.6c0,0-26-3-23.35-2.8" transform="translate(-3.38 -2.98)"/><path class="cls-7" d="M94.46,74.7S81.48,70,78.9,67.43a1.88,1.88,0,0,1-.38-.5.5.5,0,0,1,0-.43" transform="translate(-3.38 -2.98)"/><path class="cls-7" d="M78.52,66.93c3,7.43,15.94,12.69,15.94,12.69s13,2.1,33.54.49c0,0,15.5,1.39,15.5,6.39,0,0,2,4-5,10-7.45,8-8.51,10.38-8,11s2.12.25,3,0a5.92,5.92,0,0,0,2-1" transform="translate(-3.38 -2.98)"/><path class="cls-7" d="M134.74,107c-1.76,3.49-1.24,4.51-1.24,4.51s-.91.91,2.5,1h.5c4,0-8,2,10,7-9.3,0-16.76-2.84-18.15-7.54-1-3.33,1.2-7.11,3.15-10.46,4.35-7.5,9.74-9.69,9-13-.36-1.62-2-2.67-4.5-3.75-8.4-3.61-17.59-3.55-37.5-2.25a51.77,51.77,0,0,1-9.62-.12A105.73,105.73,0,0,1,74.5,79.5a1.17,1.17,0,0,0,.3.14s-.27-.17-.3-.14a12.28,12.28,0,0,0,5,5c.93.48,1.68.66,11.24,1.68,1.32.15,1.75.19,1.76.32,0,.52-6.69,1.1-21,3-9.92,1.32-13.44,1.94-18,0-3.16-1.34-5.64-3.42-6-3s2,5,6.12,7.25c8.83,4.9,20.53.61,36.88-.25,1.32-.07,3.42-.16,3.51.26.12.63-4.47,2.21-8.38,3.12C77,98.9,70.55,97.94,70.5,98.5s4.06,1.66,9.25,2c12.83.83,22.44-4.74,22.75-4,.21.49-4,3.15-9,5a80.38,80.38,0,0,1-11,3,13.33,13.33,0,0,1-2-1c.1-.28,6.82,3.52,15,3a22.31,22.31,0,0,0,13-5l2-2c-5.91,8.52-9.84,15-10,16,0,.49,0,1,0,1,0,.83,0,1.65.2,1.76.93.54,9.88-12.7,9.8-12.76a33.73,33.73,0,0,0-4.62,7.5c-2.11,4.61-3.3,10.09-2.38,10.5,1.8.79,11.37-17.9,12.89-17.12a.33.33,0,0,1,.11.12c.82,1.2-1.68,3.63-3.12,6.75-1.72,3.71-1.72,7.94-.88,8.25.49.18,1.35-1,2.12-2,1.94-2.58,2.59-5.08,2.88-5s-.65,3.63.31,4.09a.82.82,0,0,0,.69-.09c1.89-.8,2.07-4.18,2.79-4.12a.31.31,0,0,1,.21.12c.88.81-.66,3.94-.27,5.22a1.2,1.2,0,0,0,.25.44,1.44,1.44,0,0,0,1,.34,2,2,0,0,0,.62-.12c.76-.3.91-.89,1.38-.88a.81.81,0,0,1,.5.25c.61.57.18,1.56.5,1.75.56.33,2.58-2.4,3-2.13.14.09-.05.41,0,.88.15,1.32,2.05,1.78,2,2.25-.07.68-4.06.09-8.38,1.12-2.46.6-5.55,1.34-7.62,3.88-1.56,1.91-1.53,3.59-3,4-1.3.36-1.82-1-4.25-1.62-1.42-.36-5.39-1.36-8.75.62a10,10,0,0,0-3,3,28.74,28.74,0,0,0-4,8c-.81,2-4.82,12.08-11,13-1.88.28-4-.29-4,0s3.73.65,4,2c.46,2.29-9.24,7.65-13.12,4.93-1.11-.78-1.53-2.07-1.88-1.93-.54.22-.3,3.39,1.59,5.12a3,3,0,0,0,1.41.88c1.14.25,2-.52,3,0,.17.09.34.18.37.35.12.63-2,1.51-2.37,1.65-3.23,1.3-5.93.64-6,1s2.68,1.77,6,2c5.54.38,9.86-2.74,13-5,9.55-6.89,11.84-16.09,12-17.05,0,0,.34-2,.33-2.06A27.34,27.34,0,0,0,94,149,31.56,31.56,0,0,1,86.5,164.5a39,39,0,0,1-6,5c.17.25,10.59-3.59,16-13,1.76-3.1,3.27-7.18,4-7s-.42,4.87.1,5,3-4,3-9c0-1.93-.35-2.78,0-5a9,9,0,0,1,2-5c1.47-1.6,4-2.79,5-2,.77.63-.25,1.94-.5,5.12,0,.51-.54,7.67,2.5,11.88a1.9,1.9,0,0,1,.47,1.07c.1,1.92-3.7,4-6.47,4.93a5.65,5.65,0,0,0-1.62.62c-1.84,1.19-2.23,3.57-2.38,4.38A69.08,69.08,0,0,1,99,172.88c-2,5.52-4.71,9.49-6.5,10.62a4.78,4.78,0,0,0-1.5,1.25c-.75,1-.58,1.71-1.5,2.75a3.21,3.21,0,0,1-1.12.88,3.42,3.42,0,0,1-1.88.12c-2.67-.21-6.51,7.56-5,9a5.08,5.08,0,0,0,.76.44,10.14,10.14,0,0,1-1.35-.44h0" transform="translate(-3.38 -2.98)"/><polyline class="cls-1" points="106.9 244.15 107.41 236.14 120.06 236.84 119.55 244.85 113.23 244.5 113.48 240.5 113.53 239.68 117.54 239.56"/><polyline class="cls-1" points="129.95 246.06 128.81 238.11 141.37 236.52 142.51 244.47 136.23 245.26 135.66 241.29 135.54 240.48 139.45 239.64"/><polyline class="cls-1" points="148.34 243.74 146.22 235.97 158.5 233.02 160.62 240.79 154.48 242.27 153.42 238.38 153.2 237.59 156.98 236.33"/><polyline class="cls-1" points="166.95 238.73 163.6 231.41 175.24 226.51 178.59 233.83 172.77 236.28 171.1 232.62 170.75 231.87 174.28 230.02"/><polyline class="cls-1" points="183.03 231.45 178.56 224.79 189.03 217.64 193.5 224.3 188.26 227.88 186.03 224.54 185.57 223.86 188.68 221.33"/><polyline class="cls-1" points="201.08 218.75 195.33 213.14 204.33 204.23 210.08 209.84 205.58 214.29 202.71 211.49 202.12 210.91 204.71 207.87"/><polyline class="cls-1" points="215 205.1 208.62 200.19 216.63 190.42 223.01 195.34 219 200.22 215.81 197.76 215.16 197.26 217.41 193.98"/><polyline class="cls-1" points="226.39 191.21 219.37 187.26 225.91 176.45 232.92 180.4 229.66 185.81 226.15 183.83 225.43 183.42 227.19 179.85"/><polyline class="cls-1" points="234.6 175.41 227.01 172.71 231.6 160.95 239.19 163.64 236.89 169.53 233.1 168.18 232.32 167.9 233.44 164.08"/><polyline class="cls-1" points="137.82 4.88 137.34 12.34 125.27 11.68 125.75 4.22 131.79 4.55 131.55 8.28 131.5 9.04 127.68 9.15"/><polyline class="cls-1" points="116.79 5.02 117.88 12.43 105.9 13.91 104.81 6.51 110.8 5.76 111.35 9.47 111.46 10.23 107.73 11.01"/><polyline class="cls-1" points="99.26 7.18 101.28 14.42 89.57 17.18 87.55 9.93 93.4 8.56 94.41 12.18 94.62 12.92 91.02 14.09"/><polyline class="cls-1" points="82.51 12.85 85.7 19.68 74.6 24.25 71.41 17.42 76.95 15.14 78.55 18.55 78.88 19.25 75.52 20.97"/><polyline class="cls-1" points="66.17 19.64 70.44 25.85 60.46 32.51 56.19 26.3 61.18 22.97 63.31 26.08 63.75 26.71 60.79 29.07"/><polyline class="cls-1" points="50.34 29.58 55.52 35.11 46.48 42.92 41.3 37.39 45.82 33.48 48.41 36.25 48.94 36.81 46.32 39.51"/><polyline class="cls-1" points="36.82 41.22 42.81 45.92 34.99 54.87 29 50.16 32.91 45.69 35.91 48.04 36.52 48.52 34.31 51.54"/><polyline class="cls-1" points="25.82 55.15 32.52 58.83 26.29 68.91 19.59 65.22 22.71 60.19 26.05 62.03 26.74 62.41 25.06 65.73"/><polyline class="cls-1" points="17.77 69.76 24.68 73.08 19.08 83.48 12.18 80.16 14.97 74.96 18.43 76.62 19.14 76.96 17.66 80.37"/><polyline class="cls-1" points="8.99 87.62 16.27 89.31 13.65 101.11 6.37 99.42 7.68 93.52 11.32 94.36 12.07 94.54 11.55 98.33"/><polyline class="cls-1" points="5.7 106.39 13.19 106.52 12.7 118.59 5.21 118.45 5.46 112.42 9.2 112.49 9.97 112.5 10.13 116.3"/><polyline class="cls-1" points="5.59 122.63 13.11 122.62 12.62 134.64 5.1 134.65 5.35 128.64 9.11 128.64 9.88 128.64 10.04 132.42"/><polyline class="cls-1" points="6.12 141.21 13.48 139.6 15.49 151.44 8.13 153.05 7.12 147.13 10.8 146.32 11.56 146.16 12.5 149.82"/><polyline class="cls-1" points="10.22 159.22 17.29 156.63 21.27 167.95 14.2 170.54 12.21 164.88 15.74 163.59 16.47 163.32 18.02 166.78"/><polyline class="cls-1" points="17.08 176.96 23.38 172.75 29.61 182.94 23.32 187.15 20.2 182.06 23.35 179.95 23.99 179.52 26.22 182.55"/><polyline class="cls-1" points="25.53 191.71 31.51 187 38.36 196.71 32.38 201.42 28.95 196.57 31.94 194.21 32.56 193.73 34.97 196.59"/><polyline class="cls-1" points="35.45 204.58 40.8 199.13 48.82 207.85 43.47 213.3 39.46 208.94 42.13 206.22 42.68 205.66 45.43 208.17"/><polyline class="cls-1" points="48.46 216.16 53.29 210.22 62.1 218.08 57.27 224.02 52.87 220.09 55.28 217.12 55.78 216.51 58.76 218.74"/><polyline class="cls-1" points="62.55 227.54 66.75 220.7 77.6 227.24 73.41 234.08 67.98 230.81 70.08 227.39 70.51 226.69 74.1 228.46"/><polyline class="cls-1" points="83.77 238.16 86.38 230.57 98.39 234.62 95.78 242.2 89.77 240.18 91.08 236.39 91.35 235.61 95.24 236.56"/><polyline class="cls-1" points="155.73 9.08 153.9 16.33 141.22 13.27 143.05 6.02 149.39 7.55 148.48 11.17 148.29 11.92 144.22 11.26"/><polyline class="cls-1" points="174.47 16.22 171.63 23.14 159.51 18.32 162.35 11.4 168.41 13.81 166.99 17.27 166.7 17.98 162.77 16.75"/><polyline class="cls-1" points="245.81 111.93 237.68 114.07 234.43 101.07 242.56 98.92 244.19 105.42 240.12 106.5 239.29 106.72 237.92 102.72"/><polyline class="cls-1" points="242.29 92.58 234.72 96.34 229.26 84.17 236.83 80.41 239.56 86.49 235.78 88.38 235 88.76 232.96 85.09"/><polyline class="cls-1" points="235.65 75.11 228.29 79.37 222.25 67.56 229.61 63.29 232.63 69.2 228.95 71.33 228.2 71.77 225.98 68.23"/><polyline class="cls-1" points="225.25 56.88 218.8 62.47 210.66 52.04 217.11 46.46 221.18 51.67 217.96 54.46 217.3 55.03 214.46 51.99"/><polyline class="cls-1" points="211.2 42.2 205.52 48.59 196.07 39.39 201.75 33 206.48 37.6 203.64 40.8 203.05 41.45 199.84 38.83"/><polyline class="cls-1" points="193.96 25.91 189.9 33.2 178.03 26.77 182.09 19.47 188.02 22.69 186 26.34 185.58 27.09 181.67 25.37"/><polyline class="cls-1" points="246.04 131.95 237.63 132.22 237.39 118.82 245.79 118.55 245.92 125.25 241.71 125.39 240.85 125.41 240.42 121.21"/><polyline class="cls-1" points="241.73 154.94 233.62 152.71 237.34 139.84 245.45 142.06 243.59 148.5 239.54 147.39 238.71 147.16 239.54 143.01"/><path d="M116.23,101.24,122.3,106a1.68,1.68,0,0,0,1.06.44,1.54,1.54,0,0,0,1.06-.44,1.51,1.51,0,0,0,0-2.12l-6.07-4.75a1.64,1.64,0,0,0-1.06-.44,1.58,1.58,0,0,0-1.06.44,1.52,1.52,0,0,0,0,2.12Z" transform="translate(-3.38 -2.98)"/><path d="M120.55,99.9a6.78,6.78,0,0,1-1.17.33s-.38.07-.16,0-.15,0-.16,0q-.3,0-.6,0l-.54,0-.31,0c-.29,0,.17,0,0,0a11.94,11.94,0,0,1-1.18-.29l-.51-.19c.3.12,0,0,0,0l-.27-.14a7.35,7.35,0,0,1-1-.64c.17.12.08.07,0,0l-.23-.2c-.14-.13-.29-.28-.42-.42l-.16-.18s-.24-.3-.12-.13-.07-.11-.09-.15-.14-.2-.2-.3a1.5,1.5,0,0,0-2.59,1.51,9,9,0,0,0,10.61,3.71,1.54,1.54,0,0,0,1-1.85,1.51,1.51,0,0,0-1.84-1Z" transform="translate(-3.38 -2.98)"/><path class="cls-2" d="M157.81,117.26a11.36,11.36,0,0,0-5.13,6.74,1.5,1.5,0,1,0,2.9.8,6.45,6.45,0,0,1,.27-.85l.09-.25c.08-.19,0,0,0,.11.07-.13.12-.28.18-.41a13,13,0,0,1,1-1.56c.11-.15-.24.29,0,0a1.15,1.15,0,0,0,.14-.17l.3-.34a7.62,7.62,0,0,1,.64-.63l.33-.29a1.24,1.24,0,0,0,.18-.14c-.08.09-.25.19-.05.05a8.13,8.13,0,0,1,.78-.52,1.5,1.5,0,0,0-1.51-2.59Z" transform="translate(-3.38 -2.98)"/><path class="cls-2" d="M116.52,103.51h5a1.5,1.5,0,0,0,0-3h-5a1.5,1.5,0,0,0,0,3Z" transform="translate(-3.38 -2.98)"/><path class="cls-2" d="M123.64,103.51a1.5,1.5,0,0,0,0-3,1.5,1.5,0,0,0,0,3Z" transform="translate(-3.38 -2.98)"/><path class="cls-2" d="M123.63,100.59a36.88,36.88,0,0,1-6.11-.6,12.74,12.74,0,0,1-2.86-.71,2.49,2.49,0,0,0-.28-.16s-.27-.24-.17-.13a2,2,0,0,1-.17-.27c0,.12,0,.1,0-.07v-.06c0,.15,0,.14,0,0a1.5,1.5,0,1,0-2.89-.8,3.43,3.43,0,0,0,1.06,3.46,7.31,7.31,0,0,0,3.47,1.46,40.87,40.87,0,0,0,7.94.92,1.5,1.5,0,0,0,0-3Z" transform="translate(-3.38 -2.98)"/><path class="cls-2" d="M112.08,99.7c.55,0,1.09-.09,1.64-.1.28,0,.55,0,.83,0l.32,0c-.23,0,.24,0,.24,0a5.27,5.27,0,0,1,.68.19c.13,0-.07-.06.14.06l.33.19c.08.06.08.06,0,0l.12.11a2.65,2.65,0,0,1,.29.29,5.06,5.06,0,0,1,.36.58,9.81,9.81,0,0,0,2.24,2.8,19.54,19.54,0,0,0,3.13,2,1.54,1.54,0,0,0,2-.54,4.13,4.13,0,0,0-5.73-5.79,1.51,1.51,0,0,0,.76,2.79l2.57.13a1.5,1.5,0,0,0,0-3l-2.57-.13.76,2.8a3.53,3.53,0,0,1,.32-.21c.09,0,.09,0,0,0l.14,0s.41-.07.25-.06.22,0,.26,0a1.25,1.25,0,0,1,.72.32s.13.18,0,0,.21.4.12.18c0,.1.06.2.09.29.12.4,0-.1,0,.13a2.41,2.41,0,0,1,0,.38c0-.24,0,.08,0,.13s-.13.31,0,.14a2.26,2.26,0,0,1-.25.38l2.06-.54a14.34,14.34,0,0,1-2.92-1.83,23.05,23.05,0,0,1-2.1-2.91c-1.64-2-4.45-2.06-6.82-1.84a1.55,1.55,0,0,0-1.5,1.5,1.5,1.5,0,0,0,1.5,1.5Z" transform="translate(-3.38 -2.98)"/><path class="cls-2" d="M121.66,102.94l.53,2.9a1.47,1.47,0,0,0,.69.89,1.57,1.57,0,0,0,1.16.16,1.54,1.54,0,0,0,.89-.69l.15-.36a1.36,1.36,0,0,0,0-.8l-.52-2.9a1.59,1.59,0,0,0-.69-.9,1.61,1.61,0,0,0-1.16-.15,1.55,1.55,0,0,0-.9.69l-.15.36a1.55,1.55,0,0,0,0,.8Z" transform="translate(-3.38 -2.98)"/><path class="cls-2" d="M112.56,103.12c.4.12.79.25,1.18.39l.58.21.29.12q-.18-.07.06,0a22.62,22.62,0,0,1,2.14,1.09l1,.62c.17.12.34.26.51.36a1.57,1.57,0,0,0,.76.2q-.32-.06-.06,0c-.18-.09-.2-.09,0,0s.13.08,0,0a1.21,1.21,0,0,1,.16.16c-.11-.16-.12-.16,0,0s.07.13,0,0a.79.79,0,0,1,.06.22q0-.32,0-.06c0-.21,0-.24,0-.07a1.52,1.52,0,0,0,1.85,1.85,3.13,3.13,0,0,0,2.19-1.75,1.53,1.53,0,0,0-.54-2.05,1.52,1.52,0,0,0-2,.54,2.06,2.06,0,0,1-.17.33c.15-.24-.07.06,0-.06s-.13.08-.16.09c.22-.12,0,0-.11,0l1.84,1.85a3.16,3.16,0,0,0-2.88-3.93l.76.21a21.7,21.7,0,0,0-6.46-3.12,1.5,1.5,0,1,0-.8,2.89Z" transform="translate(-3.38 -2.98)"/><path class="cls-2" d="M115.49,97.06a15.37,15.37,0,0,0-4.31-1.52,1.61,1.61,0,0,0-1.16.15,1.53,1.53,0,0,0-.61.72,1.49,1.49,0,0,0,.61,1.87,2.88,2.88,0,0,1,.47.3l-.3-.24a3.71,3.71,0,0,1,.56.56l-.24-.3a3.46,3.46,0,0,1,.32.52l.9-2.2h0l.39-.06h-.21l.4.05a1.14,1.14,0,0,1-.25-.06l.36.15a1.71,1.71,0,0,1-.23-.13l.3.23a1.07,1.07,0,0,1-.19-.18l.24.31a1.09,1.09,0,0,1-.14-.23l.15.36-.06-.2.06.4v0a1.59,1.59,0,0,0-.44-1.06A1.52,1.52,0,0,0,111,96a1.46,1.46,0,0,0-1.06.44,1.42,1.42,0,0,0-.44,1.06,2.54,2.54,0,0,0,.32,1.1,2.44,2.44,0,0,0,.66.73,2.39,2.39,0,0,0,.87.44,2.52,2.52,0,0,0,1.19,0,1.43,1.43,0,0,0,1-.87,1.52,1.52,0,0,0-.08-1.33,4.41,4.41,0,0,0-1.88-1.92l-1.16,2.74a14.77,14.77,0,0,1,2.91.87l-.36-.15c.36.15.7.32,1,.5a1.59,1.59,0,0,0,1.15.15,1.56,1.56,0,0,0,.9-.69,1.53,1.53,0,0,0-.54-2Z" transform="translate(-3.38 -2.98)"/><path class="cls-8" d="M124.92,84.66" transform="translate(-3.38 -2.98)"/></g></svg>